<svg width="750" height="1277" viewBox="0 0 750 1277" fill="none" xmlns="http://www.w3.org/2000/svg">
<g filter="url(#filter0_d)">
<rect width="1521.35" height="796.25" rx="64" transform="matrix(-0.944434 0.328701 0.356205 0.934408 374 0)" fill="url(#paint0_linear)"/>
</g>
<g filter="url(#filter1_d)">
<rect x="120" y="160" width="284" height="225" rx="10" fill="white"/>
</g>
<g filter="url(#filter2_d)">
<rect x="446" y="483" width="284" height="225" rx="10" fill="white"/>
</g>
<g filter="url(#filter3_d)">
<rect x="123" y="427" width="282" height="225" rx="10" fill="white"/>
</g>
<g filter="url(#filter4_d)">
<rect x="446" y="216" width="284" height="225" rx="10" fill="white"/>
</g>
<g clip-path="url(#clip0)">
<path fill-rule="evenodd" clip-rule="evenodd" d="M482.885 279.618C482.886 280.265 482.759 280.905 482.511 281.503C482.264 282.101 481.901 282.644 481.444 283.101C480.986 283.558 480.443 283.921 479.845 284.168C479.248 284.415 478.607 284.542 477.96 284.541C477.314 284.541 476.673 284.414 476.076 284.167C475.479 283.92 474.936 283.557 474.479 283.1C474.022 282.642 473.659 282.1 473.412 281.502C473.165 280.905 473.038 280.264 473.039 279.618C473.038 278.971 473.165 278.331 473.413 277.733C473.66 277.136 474.022 276.593 474.48 276.136C474.937 275.678 475.48 275.316 476.077 275.068C476.675 274.821 477.315 274.694 477.962 274.695H482.887V279.618H482.885ZM485.347 279.618C485.346 278.971 485.473 278.331 485.721 277.733C485.968 277.136 486.331 276.593 486.788 276.136C487.245 275.678 487.788 275.316 488.386 275.068C488.983 274.821 489.624 274.694 490.27 274.695C490.917 274.694 491.557 274.821 492.155 275.068C492.752 275.316 493.295 275.678 493.753 276.136C494.21 276.593 494.572 277.136 494.82 277.733C495.067 278.331 495.194 278.971 495.193 279.618V291.928C495.194 292.575 495.067 293.215 494.82 293.813C494.572 294.41 494.21 294.953 493.753 295.41C493.295 295.868 492.752 296.23 492.155 296.478C491.557 296.725 490.917 296.852 490.27 296.851C489.624 296.852 488.983 296.725 488.386 296.478C487.788 296.23 487.245 295.868 486.788 295.41C486.331 294.953 485.968 294.41 485.721 293.813C485.473 293.215 485.346 292.575 485.347 291.928V279.618Z" fill="#E01E5A"/>
<path fill-rule="evenodd" clip-rule="evenodd" d="M490.27 259.848C489.623 259.849 488.983 259.722 488.385 259.475C487.788 259.227 487.244 258.864 486.787 258.407C486.33 257.949 485.967 257.406 485.72 256.809C485.473 256.211 485.346 255.57 485.347 254.923C485.347 254.277 485.474 253.636 485.721 253.039C485.968 252.441 486.331 251.898 486.788 251.441C487.245 250.984 487.788 250.621 488.386 250.374C488.983 250.126 489.624 249.999 490.27 250C490.917 249.999 491.557 250.126 492.155 250.374C492.753 250.621 493.295 250.984 493.753 251.441C494.21 251.898 494.573 252.441 494.82 253.039C495.067 253.636 495.194 254.277 495.194 254.923V259.85H490.272L490.27 259.848ZM490.27 262.347C490.917 262.347 491.557 262.474 492.155 262.721C492.753 262.968 493.295 263.331 493.753 263.788C494.21 264.245 494.573 264.788 494.82 265.386C495.067 265.983 495.194 266.624 495.194 267.271C495.194 267.917 495.067 268.558 494.82 269.155C494.573 269.753 494.21 270.296 493.753 270.753C493.295 271.21 492.753 271.573 492.155 271.82C491.557 272.067 490.917 272.194 490.27 272.194H477.923C477.276 272.194 476.636 272.067 476.039 271.82C475.441 271.573 474.899 271.211 474.441 270.754C473.984 270.297 473.621 269.754 473.374 269.157C473.127 268.559 472.999 267.919 473 267.273C472.999 266.626 473.126 265.985 473.373 265.388C473.621 264.79 473.983 264.247 474.441 263.79C474.898 263.333 475.441 262.97 476.038 262.723C476.636 262.476 477.276 262.349 477.923 262.349H490.272L490.27 262.347Z" fill="#36C5F0"/>
<path fill-rule="evenodd" clip-rule="evenodd" d="M510.002 267.271C510.002 266.624 510.129 265.983 510.376 265.385C510.624 264.788 510.987 264.245 511.444 263.787C511.901 263.33 512.445 262.968 513.042 262.72C513.64 262.473 514.281 262.347 514.928 262.347C515.574 262.347 516.215 262.474 516.812 262.721C517.41 262.968 517.953 263.331 518.41 263.788C518.867 264.245 519.23 264.788 519.477 265.386C519.724 265.983 519.851 266.624 519.851 267.271C519.851 267.917 519.724 268.558 519.477 269.155C519.23 269.753 518.867 270.296 518.41 270.753C517.953 271.21 517.41 271.573 516.812 271.82C516.215 272.067 515.574 272.194 514.928 272.194H510.002V267.273V267.271ZM507.541 267.271C507.541 267.917 507.414 268.558 507.167 269.155C506.92 269.753 506.557 270.296 506.1 270.753C505.643 271.21 505.1 271.573 504.502 271.82C503.905 272.067 503.264 272.194 502.618 272.194C501.971 272.195 501.33 272.068 500.732 271.821C500.135 271.574 499.591 271.211 499.134 270.754C498.676 270.296 498.314 269.753 498.066 269.156C497.819 268.558 497.692 267.917 497.692 267.271V254.923C497.692 254.276 497.819 253.636 498.066 253.038C498.314 252.44 498.676 251.897 499.134 251.44C499.591 250.983 500.135 250.62 500.732 250.373C501.33 250.126 501.971 249.999 502.618 250C503.264 249.999 503.905 250.126 504.502 250.374C505.1 250.621 505.643 250.984 506.1 251.441C506.557 251.898 506.92 252.441 507.167 253.039C507.414 253.636 507.541 254.277 507.541 254.923V267.273V267.271Z" fill="#2EB67D"/>
<path fill-rule="evenodd" clip-rule="evenodd" d="M502.618 287.003C503.264 287.002 503.905 287.129 504.502 287.377C505.1 287.624 505.643 287.986 506.1 288.444C506.557 288.901 506.92 289.444 507.167 290.041C507.414 290.639 507.541 291.279 507.541 291.926C507.542 292.573 507.415 293.214 507.168 293.811C506.921 294.409 506.558 294.952 506.101 295.41C505.643 295.867 505.1 296.23 504.503 296.477C503.905 296.725 503.264 296.852 502.618 296.851C501.971 296.852 501.33 296.725 500.732 296.477C500.135 296.23 499.592 295.867 499.134 295.41C498.677 294.952 498.315 294.409 498.067 293.811C497.82 293.214 497.694 292.573 497.694 291.926V287.003H502.618ZM502.618 284.541C501.971 284.542 501.33 284.415 500.733 284.167C500.135 283.92 499.592 283.558 499.135 283.1C498.678 282.643 498.315 282.1 498.068 281.503C497.821 280.905 497.694 280.265 497.694 279.618C497.694 278.971 497.821 278.331 498.068 277.733C498.315 277.136 498.678 276.593 499.135 276.136C499.592 275.678 500.135 275.316 500.733 275.068C501.33 274.821 501.971 274.694 502.618 274.695H514.965C515.612 274.694 516.252 274.821 516.85 275.068C517.447 275.316 517.99 275.678 518.447 276.136C518.905 276.593 519.267 277.136 519.514 277.733C519.762 278.331 519.889 278.971 519.888 279.618C519.889 280.265 519.762 280.905 519.514 281.503C519.267 282.1 518.905 282.643 518.447 283.1C517.99 283.558 517.447 283.92 516.85 284.167C516.252 284.415 515.612 284.542 514.965 284.541H502.618Z" fill="#ECB22E"/>
</g>
<path d="M480.272 342.312C478.656 342.312 477.28 341.944 476.144 341.208C475.024 340.472 474.24 339.464 473.792 338.184L476.168 336.792C476.84 338.68 478.232 339.624 480.344 339.624C481.384 339.624 482.16 339.424 482.672 339.024C483.2 338.608 483.464 338.072 483.464 337.416C483.464 336.728 483.184 336.208 482.624 335.856C482.064 335.488 481.072 335.088 479.648 334.656C478.848 334.416 478.2 334.192 477.704 333.984C477.208 333.776 476.68 333.488 476.12 333.12C475.576 332.736 475.168 332.264 474.896 331.704C474.624 331.144 474.488 330.488 474.488 329.736C474.488 328.248 475.016 327.072 476.072 326.208C477.128 325.328 478.4 324.888 479.888 324.888C481.232 324.888 482.408 325.216 483.416 325.872C484.424 326.528 485.2 327.432 485.744 328.584L483.416 329.928C482.712 328.36 481.536 327.576 479.888 327.576C479.088 327.576 478.448 327.768 477.968 328.152C477.488 328.52 477.248 329.024 477.248 329.664C477.248 330.288 477.488 330.784 477.968 331.152C478.464 331.504 479.352 331.88 480.632 332.28C481.272 332.488 481.736 332.648 482.024 332.76C482.328 332.856 482.744 333.016 483.272 333.24C483.816 333.464 484.224 333.688 484.496 333.912C484.768 334.136 485.056 334.416 485.36 334.752C485.68 335.088 485.904 335.472 486.032 335.904C486.16 336.336 486.224 336.824 486.224 337.368C486.224 338.888 485.672 340.096 484.568 340.992C483.48 341.872 482.048 342.312 480.272 342.312ZM488.937 342V324.48H491.529V342H488.937ZM504.523 330H507.115V342H504.523V340.272C503.547 341.632 502.147 342.312 500.323 342.312C498.675 342.312 497.267 341.704 496.099 340.488C494.931 339.256 494.347 337.76 494.347 336C494.347 334.224 494.931 332.728 496.099 331.512C497.267 330.296 498.675 329.688 500.323 329.688C502.147 329.688 503.547 330.36 504.523 331.704V330ZM498.019 338.76C498.739 339.48 499.643 339.84 500.731 339.84C501.819 339.84 502.723 339.48 503.443 338.76C504.163 338.024 504.523 337.104 504.523 336C504.523 334.896 504.163 333.984 503.443 333.264C502.723 332.528 501.819 332.16 500.731 332.16C499.643 332.16 498.739 332.528 498.019 333.264C497.299 333.984 496.939 334.896 496.939 336C496.939 337.104 497.299 338.024 498.019 338.76ZM516.28 342.312C514.472 342.312 512.96 341.704 511.744 340.488C510.544 339.272 509.944 337.776 509.944 336C509.944 334.208 510.544 332.712 511.744 331.512C512.96 330.296 514.472 329.688 516.28 329.688C517.448 329.688 518.512 329.968 519.472 330.528C520.432 331.088 521.152 331.84 521.632 332.784L519.4 334.08C519.128 333.504 518.712 333.056 518.152 332.736C517.608 332.4 516.976 332.232 516.256 332.232C515.2 332.232 514.312 332.592 513.592 333.312C512.888 334.032 512.536 334.928 512.536 336C512.536 337.072 512.888 337.968 513.592 338.688C514.312 339.408 515.2 339.768 516.256 339.768C516.96 339.768 517.592 339.6 518.152 339.264C518.728 338.928 519.16 338.48 519.448 337.92L521.68 339.192C521.168 340.152 520.432 340.912 519.472 341.472C518.512 342.032 517.448 342.312 516.28 342.312ZM534.641 342H531.545L526.625 336.456V342H524.033V325.2H526.625V335.304L531.281 330H534.449L529.169 335.88L534.641 342Z" fill="#0D1F3C"/>
<path d="M486.14 388.4V401H484.484V391.154L480.362 398.012H480.146L476.024 391.172V401H474.35V388.4H476.24L480.254 395.06L484.25 388.4H486.14ZM490.13 397.22C490.286 398.024 490.652 398.648 491.228 399.092C491.816 399.536 492.536 399.758 493.388 399.758C494.576 399.758 495.44 399.32 495.98 398.444L497.312 399.2C496.436 400.556 495.116 401.234 493.352 401.234C491.924 401.234 490.76 400.79 489.86 399.902C488.972 399.002 488.528 397.868 488.528 396.5C488.528 395.144 488.966 394.016 489.842 393.116C490.718 392.216 491.852 391.766 493.244 391.766C494.564 391.766 495.638 392.234 496.466 393.17C497.306 394.094 497.726 395.21 497.726 396.518C497.726 396.746 497.708 396.98 497.672 397.22H490.13ZM493.244 393.242C492.404 393.242 491.708 393.482 491.156 393.962C490.604 394.43 490.262 395.06 490.13 395.852H496.142C496.01 395 495.674 394.352 495.134 393.908C494.594 393.464 493.964 393.242 493.244 393.242ZM500.885 394.43C500.885 394.778 501.059 395.06 501.407 395.276C501.755 395.48 502.175 395.648 502.667 395.78C503.159 395.9 503.651 396.044 504.143 396.212C504.635 396.368 505.055 396.644 505.403 397.04C505.751 397.424 505.925 397.922 505.925 398.534C505.925 399.35 505.607 400.004 504.971 400.496C504.347 400.988 503.543 401.234 502.559 401.234C501.683 401.234 500.933 401.042 500.309 400.658C499.685 400.274 499.241 399.764 498.977 399.128L500.327 398.354C500.471 398.786 500.741 399.128 501.137 399.38C501.533 399.632 502.007 399.758 502.559 399.758C503.075 399.758 503.501 399.662 503.837 399.47C504.173 399.266 504.341 398.954 504.341 398.534C504.341 398.186 504.167 397.91 503.819 397.706C503.471 397.49 503.051 397.322 502.559 397.202C502.067 397.07 501.575 396.92 501.083 396.752C500.591 396.584 500.171 396.308 499.823 395.924C499.475 395.54 499.301 395.048 499.301 394.448C499.301 393.668 499.601 393.026 500.201 392.522C500.813 392.018 501.575 391.766 502.487 391.766C503.219 391.766 503.867 391.934 504.431 392.27C505.007 392.594 505.439 393.05 505.727 393.638L504.413 394.376C504.089 393.608 503.447 393.224 502.487 393.224C502.043 393.224 501.665 393.332 501.353 393.548C501.041 393.752 500.885 394.046 500.885 394.43ZM508.926 394.43C508.926 394.778 509.1 395.06 509.448 395.276C509.796 395.48 510.216 395.648 510.708 395.78C511.2 395.9 511.692 396.044 512.184 396.212C512.676 396.368 513.096 396.644 513.444 397.04C513.792 397.424 513.966 397.922 513.966 398.534C513.966 399.35 513.648 400.004 513.012 400.496C512.388 400.988 511.584 401.234 510.6 401.234C509.724 401.234 508.974 401.042 508.35 400.658C507.726 400.274 507.282 399.764 507.018 399.128L508.368 398.354C508.512 398.786 508.782 399.128 509.178 399.38C509.574 399.632 510.048 399.758 510.6 399.758C511.116 399.758 511.542 399.662 511.878 399.47C512.214 399.266 512.382 398.954 512.382 398.534C512.382 398.186 512.208 397.91 511.86 397.706C511.512 397.49 511.092 397.322 510.6 397.202C510.108 397.07 509.616 396.92 509.124 396.752C508.632 396.584 508.212 396.308 507.864 395.924C507.516 395.54 507.342 395.048 507.342 394.448C507.342 393.668 507.642 393.026 508.242 392.522C508.854 392.018 509.616 391.766 510.528 391.766C511.26 391.766 511.908 391.934 512.472 392.27C513.048 392.594 513.48 393.05 513.768 393.638L512.454 394.376C512.13 393.608 511.488 393.224 510.528 393.224C510.084 393.224 509.706 393.332 509.394 393.548C509.082 393.752 508.926 394.046 508.926 394.43ZM517.032 397.22C517.188 398.024 517.554 398.648 518.13 399.092C518.718 399.536 519.438 399.758 520.29 399.758C521.478 399.758 522.342 399.32 522.882 398.444L524.214 399.2C523.338 400.556 522.018 401.234 520.254 401.234C518.826 401.234 517.662 400.79 516.762 399.902C515.874 399.002 515.43 397.868 515.43 396.5C515.43 395.144 515.868 394.016 516.744 393.116C517.62 392.216 518.754 391.766 520.146 391.766C521.466 391.766 522.54 392.234 523.368 393.17C524.208 394.094 524.628 395.21 524.628 396.518C524.628 396.746 524.61 396.98 524.574 397.22H517.032ZM520.146 393.242C519.306 393.242 518.61 393.482 518.058 393.962C517.506 394.43 517.164 395.06 517.032 395.852H523.044C522.912 395 522.576 394.352 522.036 393.908C521.496 393.464 520.866 393.242 520.146 393.242ZM534.241 392H535.789V400.622C535.789 401.954 535.339 402.986 534.439 403.718C533.539 404.462 532.459 404.834 531.199 404.834C530.191 404.834 529.321 404.642 528.589 404.258C527.857 403.886 527.305 403.346 526.933 402.638L528.301 401.864C528.793 402.872 529.771 403.376 531.235 403.376C532.171 403.376 532.903 403.13 533.431 402.638C533.971 402.146 534.241 401.474 534.241 400.622V399.344C533.449 400.544 532.321 401.144 530.857 401.144C529.573 401.144 528.487 400.688 527.599 399.776C526.711 398.864 526.267 397.754 526.267 396.446C526.267 395.138 526.711 394.034 527.599 393.134C528.487 392.222 529.573 391.766 530.857 391.766C532.333 391.766 533.461 392.36 534.241 393.548V392ZM528.751 398.732C529.363 399.344 530.125 399.65 531.037 399.65C531.949 399.65 532.711 399.344 533.323 398.732C533.935 398.12 534.241 397.358 534.241 396.446C534.241 395.546 533.935 394.79 533.323 394.178C532.711 393.566 531.949 393.26 531.037 393.26C530.125 393.26 529.363 393.566 528.751 394.178C528.139 394.79 527.833 395.546 527.833 396.446C527.833 397.358 528.139 398.12 528.751 398.732ZM539.314 390.362C539.014 390.362 538.762 390.26 538.558 390.056C538.354 389.852 538.252 389.606 538.252 389.318C538.252 389.03 538.354 388.784 538.558 388.58C538.762 388.364 539.014 388.256 539.314 388.256C539.602 388.256 539.848 388.364 540.052 388.58C540.256 388.784 540.358 389.03 540.358 389.318C540.358 389.606 540.256 389.852 540.052 390.056C539.848 390.26 539.602 390.362 539.314 390.362ZM538.522 401V392H540.088V401H538.522ZM547.319 391.766C548.375 391.766 549.221 392.102 549.857 392.774C550.493 393.434 550.811 394.334 550.811 395.474V401H549.245V395.564C549.245 394.832 549.047 394.268 548.651 393.872C548.255 393.464 547.709 393.26 547.013 393.26C546.233 393.26 545.603 393.506 545.123 393.998C544.643 394.478 544.403 395.222 544.403 396.23V401H542.837V392H544.403V393.296C545.039 392.276 546.011 391.766 547.319 391.766ZM560.827 392H562.375V400.622C562.375 401.954 561.925 402.986 561.025 403.718C560.125 404.462 559.045 404.834 557.785 404.834C556.777 404.834 555.907 404.642 555.175 404.258C554.443 403.886 553.891 403.346 553.519 402.638L554.887 401.864C555.379 402.872 556.357 403.376 557.821 403.376C558.757 403.376 559.489 403.13 560.017 402.638C560.557 402.146 560.827 401.474 560.827 400.622V399.344C560.035 400.544 558.907 401.144 557.443 401.144C556.159 401.144 555.073 400.688 554.185 399.776C553.297 398.864 552.853 397.754 552.853 396.446C552.853 395.138 553.297 394.034 554.185 393.134C555.073 392.222 556.159 391.766 557.443 391.766C558.919 391.766 560.047 392.36 560.827 393.548V392ZM555.337 398.732C555.949 399.344 556.711 399.65 557.623 399.65C558.535 399.65 559.297 399.344 559.909 398.732C560.521 398.12 560.827 397.358 560.827 396.446C560.827 395.546 560.521 394.79 559.909 394.178C559.297 393.566 558.535 393.26 557.623 393.26C556.711 393.26 555.949 393.566 555.337 394.178C554.725 394.79 554.419 395.546 554.419 396.446C554.419 397.358 554.725 398.12 555.337 398.732Z" fill="#78839C"/>
<path d="M704.53 395.53C704.823 395.237 704.823 394.763 704.53 394.47L699.757 389.697C699.464 389.404 698.99 389.404 698.697 389.697C698.404 389.99 698.404 390.464 698.697 390.757L702.939 395L698.697 399.243C698.404 399.536 698.404 400.01 698.697 400.303C698.99 400.596 699.464 400.596 699.757 400.303L704.53 395.53ZM689 395.75L704 395.75L704 394.25L689 394.25L689 395.75Z" fill="#2152FF"/>
<defs>
<filter id="filter0_d" x="-1074.19" y="7.42737" width="1743.19" height="1269.24" filterUnits="userSpaceOnUse" color-interpolation-filters="sRGB">
<feFlood flood-opacity="0" result="BackgroundImageFix"/>
<feColorMatrix in="SourceAlpha" type="matrix" values="0 0 0 0 0 0 0 0 0 0 0 0 0 0 0 0 0 0 127 0"/>
<feOffset dy="20"/>
<feGaussianBlur stdDeviation="15"/>
<feColorMatrix type="matrix" values="0 0 0 0 0.0980392 0 0 0 0 0.105882 0 0 0 0 0.105882 0 0 0 0.2 0"/>
<feBlend mode="normal" in2="BackgroundImageFix" result="effect1_dropShadow"/>
<feBlend mode="normal" in="SourceGraphic" in2="effect1_dropShadow" result="shape"/>
</filter>
<filter id="filter1_d" x="100" y="150" width="324" height="265" filterUnits="userSpaceOnUse" color-interpolation-filters="sRGB">
<feFlood flood-opacity="0" result="BackgroundImageFix"/>
<feColorMatrix in="SourceAlpha" type="matrix" values="0 0 0 0 0 0 0 0 0 0 0 0 0 0 0 0 0 0 127 0"/>
<feOffset dy="10"/>
<feGaussianBlur stdDeviation="10"/>
<feColorMatrix type="matrix" values="0 0 0 0 0.0980392 0 0 0 0 0.105882 0 0 0 0 0.105882 0 0 0 0.06 0"/>
<feBlend mode="normal" in2="BackgroundImageFix" result="effect1_dropShadow"/>
<feBlend mode="normal" in="SourceGraphic" in2="effect1_dropShadow" result="shape"/>
</filter>
<filter id="filter2_d" x="426" y="473" width="324" height="265" filterUnits="userSpaceOnUse" color-interpolation-filters="sRGB">
<feFlood flood-opacity="0" result="BackgroundImageFix"/>
<feColorMatrix in="SourceAlpha" type="matrix" values="0 0 0 0 0 0 0 0 0 0 0 0 0 0 0 0 0 0 127 0"/>
<feOffset dy="10"/>
<feGaussianBlur stdDeviation="10"/>
<feColorMatrix type="matrix" values="0 0 0 0 0.0980392 0 0 0 0 0.105882 0 0 0 0 0.105882 0 0 0 0.06 0"/>
<feBlend mode="normal" in2="BackgroundImageFix" result="effect1_dropShadow"/>
<feBlend mode="normal" in="SourceGraphic" in2="effect1_dropShadow" result="shape"/>
</filter>
<filter id="filter3_d" x="103" y="417" width="322" height="265" filterUnits="userSpaceOnUse" color-interpolation-filters="sRGB">
<feFlood flood-opacity="0" result="BackgroundImageFix"/>
<feColorMatrix in="SourceAlpha" type="matrix" values="0 0 0 0 0 0 0 0 0 0 0 0 0 0 0 0 0 0 127 0"/>
<feOffset dy="10"/>
<feGaussianBlur stdDeviation="10"/>
<feColorMatrix type="matrix" values="0 0 0 0 0.0980392 0 0 0 0 0.105882 0 0 0 0 0.105882 0 0 0 0.06 0"/>
<feBlend mode="normal" in2="BackgroundImageFix" result="effect1_dropShadow"/>
<feBlend mode="normal" in="SourceGraphic" in2="effect1_dropShadow" result="shape"/>
</filter>
<filter id="filter4_d" x="426" y="206" width="324" height="265" filterUnits="userSpaceOnUse" color-interpolation-filters="sRGB">
<feFlood flood-opacity="0" result="BackgroundImageFix"/>
<feColorMatrix in="SourceAlpha" type="matrix" values="0 0 0 0 0 0 0 0 0 0 0 0 0 0 0 0 0 0 127 0"/>
<feOffset dy="10"/>
<feGaussianBlur stdDeviation="10"/>
<feColorMatrix type="matrix" values="0 0 0 0 0.0980392 0 0 0 0 0.105882 0 0 0 0 0.105882 0 0 0 0.06 0"/>
<feBlend mode="normal" in2="BackgroundImageFix" result="effect1_dropShadow"/>
<feBlend mode="normal" in="SourceGraphic" in2="effect1_dropShadow" result="shape"/>
</filter>
<linearGradient id="paint0_linear" x1="0" y1="398.125" x2="1521.35" y2="398.125" gradientUnits="userSpaceOnUse">
<stop stop-color="#0575E6"/>
<stop offset="1" stop-color="#021B79"/>
</linearGradient>
<clipPath id="clip0">
<rect width="47" height="47" fill="white" transform="translate(473 250)"/>
</clipPath>
</defs>
</svg>
