<svg width="1440" height="540" viewBox="0 0 1440 540" fill="none" xmlns="http://www.w3.org/2000/svg">
<path fill-rule="evenodd" clip-rule="evenodd" d="M-2 539.954V0C26.4495 7.73226 58.1981 15.0143 92.9678 21.7653C175.705 37.8299 273.928 50.573 382.029 59.267C490.13 67.9611 605.992 72.4359 723 72.4359C840.008 72.4359 955.87 67.9611 1063.97 59.267C1172.07 50.573 1270.3 37.8299 1353.03 21.7653C1384.98 15.5629 1414.37 8.91213 1441 1.87584V522.982C1422.17 518.506 1402.16 514.208 1381.03 510.107C1298.3 494.042 1200.07 481.299 1091.97 472.605C983.87 463.911 868.008 459.436 751 459.436C633.992 459.436 518.13 463.911 410.029 472.605C301.928 481.299 203.705 494.042 120.968 510.107C74.3159 519.165 33.1027 529.179 -2 539.954Z" fill="#2152FF"/>
</svg>
