<svg width="350" height="210" viewBox="0 0 350 210" fill="none" xmlns="http://www.w3.org/2000/svg">
<rect width="48.2006" height="53" rx="5" fill="url(#paint0_linear)"/>
<path d="M30.7366 42L29.1966 37.16H17.7566L16.2166 42H8.5166L18.9886 11.2H27.9646L38.4366 42H30.7366ZM19.8686 30.56H27.0846L23.4766 19.252L19.8686 30.56Z" fill="white"/>
<path d="M77.3629 15.204C73.9015 14.8813 72.1709 16.3333 72.1709 19.56V20H77.3629V24.576H72.1709V42H67.4189V24.576H64.0749V20H67.4189V19.56C67.4189 16.5387 68.2549 14.2507 69.9269 12.696C71.6282 11.112 74.1069 10.4227 77.3629 10.628V15.204ZM83.7322 33.024C84.0842 34.696 84.8909 35.9867 86.1522 36.896C87.4135 37.776 88.9535 38.216 90.7722 38.216C93.2949 38.216 95.1869 37.3067 96.4482 35.488L100.364 37.776C98.1935 40.9733 94.9815 42.572 90.7282 42.572C87.1495 42.572 84.2602 41.4867 82.0602 39.316C79.8602 37.116 78.7602 34.344 78.7602 31C78.7602 27.7147 79.8455 24.972 82.0162 22.772C84.1869 20.5427 86.9735 19.428 90.3762 19.428C93.6029 19.428 96.2429 20.5573 98.2962 22.816C100.379 25.0747 101.42 27.8173 101.42 31.044C101.42 31.5427 101.362 32.2027 101.244 33.024H83.7322ZM83.6882 29.152H96.6242C96.3015 27.3627 95.5535 26.0133 94.3802 25.104C93.2362 24.1947 91.8869 23.74 90.3322 23.74C88.5722 23.74 87.1055 24.224 85.9322 25.192C84.7589 26.16 84.0109 27.48 83.6882 29.152ZM130.966 20H135.982L129.074 42H124.41L119.834 27.172L115.214 42H110.55L103.642 20H108.658L112.926 35.18L117.546 20H122.078L126.654 35.18L130.966 20ZM156.994 23.696C158.196 20.968 160.455 19.604 163.77 19.604V24.752C161.951 24.6347 160.367 25.0747 159.018 26.072C157.668 27.04 156.994 28.6533 156.994 30.912V42H152.242V20H156.994V23.696ZM170.869 33.024C171.221 34.696 172.028 35.9867 173.289 36.896C174.551 37.776 176.091 38.216 177.909 38.216C180.432 38.216 182.324 37.3067 183.585 35.488L187.501 37.776C185.331 40.9733 182.119 42.572 177.865 42.572C174.287 42.572 171.397 41.4867 169.197 39.316C166.997 37.116 165.897 34.344 165.897 31C165.897 27.7147 166.983 24.972 169.153 22.772C171.324 20.5427 174.111 19.428 177.513 19.428C180.74 19.428 183.38 20.5573 185.433 22.816C187.516 25.0747 188.557 27.8173 188.557 31.044C188.557 31.5427 188.499 32.2027 188.381 33.024H170.869ZM170.825 29.152H183.761C183.439 27.3627 182.691 26.0133 181.517 25.104C180.373 24.1947 179.024 23.74 177.469 23.74C175.709 23.74 174.243 24.224 173.069 25.192C171.896 26.16 171.148 27.48 170.825 29.152ZM210.914 20H215.666V42H210.914V38.832C209.125 41.3253 206.558 42.572 203.214 42.572C200.193 42.572 197.611 41.4573 195.47 39.228C193.329 36.9693 192.258 34.2267 192.258 31C192.258 27.744 193.329 25.0013 195.47 22.772C197.611 20.5427 200.193 19.428 203.214 19.428C206.558 19.428 209.125 20.66 210.914 23.124V20ZM198.99 36.06C200.31 37.38 201.967 38.04 203.962 38.04C205.957 38.04 207.614 37.38 208.934 36.06C210.254 34.7107 210.914 33.024 210.914 31C210.914 28.976 210.254 27.304 208.934 25.984C207.614 24.6347 205.957 23.96 203.962 23.96C201.967 23.96 200.31 24.6347 198.99 25.984C197.67 27.304 197.01 28.976 197.01 31C197.01 33.024 197.67 34.7107 198.99 36.06ZM226.224 26.072C226.224 26.8053 226.62 27.392 227.412 27.832C228.233 28.2427 229.216 28.6093 230.36 28.932C231.533 29.2253 232.706 29.5773 233.88 29.988C235.053 30.3987 236.036 31.1027 236.828 32.1C237.649 33.068 238.06 34.3 238.06 35.796C238.06 37.908 237.238 39.5653 235.596 40.768C233.982 41.9707 231.944 42.572 229.48 42.572C227.309 42.572 225.446 42.1173 223.892 41.208C222.337 40.2987 221.208 39.0373 220.504 37.424L224.596 35.048C225.358 37.16 226.986 38.216 229.48 38.216C231.973 38.216 233.22 37.3947 233.22 35.752C233.22 35.048 232.809 34.476 231.988 34.036C231.196 33.596 230.213 33.2293 229.04 32.936C227.896 32.6133 226.737 32.2467 225.564 31.836C224.39 31.4253 223.393 30.7507 222.572 29.812C221.78 28.844 221.384 27.6267 221.384 26.16C221.384 24.136 222.146 22.508 223.672 21.276C225.226 20.044 227.148 19.428 229.436 19.428C231.254 19.428 232.868 19.8387 234.276 20.66C235.713 21.452 236.813 22.5667 237.576 24.004L233.572 26.248C232.809 24.576 231.43 23.74 229.436 23.74C228.526 23.74 227.764 23.9453 227.148 24.356C226.532 24.7373 226.224 25.3093 226.224 26.072ZM252.942 42.572C249.716 42.572 246.973 41.4573 244.714 39.228C242.456 36.9987 241.326 34.256 241.326 31C241.326 27.744 242.456 25.0013 244.714 22.772C246.973 20.5427 249.716 19.428 252.942 19.428C256.198 19.428 258.941 20.5427 261.17 22.772C263.429 25.0013 264.558 27.744 264.558 31C264.558 34.256 263.429 36.9987 261.17 39.228C258.941 41.4573 256.198 42.572 252.942 42.572ZM248.058 35.972C249.378 37.292 251.006 37.952 252.942 37.952C254.878 37.952 256.506 37.292 257.826 35.972C259.146 34.652 259.806 32.9947 259.806 31C259.806 29.0053 259.146 27.348 257.826 26.028C256.506 24.708 254.878 24.048 252.942 24.048C251.006 24.048 249.378 24.708 248.058 26.028C246.738 27.348 246.078 29.0053 246.078 31C246.078 32.9947 246.738 34.652 248.058 35.972ZM281.307 19.428C283.83 19.428 285.869 20.2347 287.423 21.848C288.978 23.4613 289.755 25.676 289.755 28.492V42H285.003V28.976C285.003 27.3333 284.563 26.072 283.683 25.192C282.803 24.312 281.601 23.872 280.075 23.872C278.403 23.872 277.054 24.4 276.027 25.456C275.001 26.4827 274.487 28.0667 274.487 30.208V42H269.735V20H274.487V22.816C275.925 20.5573 278.198 19.428 281.307 19.428ZM300.02 26.072C300.02 26.8053 300.416 27.392 301.208 27.832C302.029 28.2427 303.012 28.6093 304.156 28.932C305.329 29.2253 306.503 29.5773 307.676 29.988C308.849 30.3987 309.832 31.1027 310.624 32.1C311.445 33.068 311.856 34.3 311.856 35.796C311.856 37.908 311.035 39.5653 309.392 40.768C307.779 41.9707 305.74 42.572 303.276 42.572C301.105 42.572 299.243 42.1173 297.688 41.208C296.133 40.2987 295.004 39.0373 294.3 37.424L298.392 35.048C299.155 37.16 300.783 38.216 303.276 38.216C305.769 38.216 307.016 37.3947 307.016 35.752C307.016 35.048 306.605 34.476 305.784 34.036C304.992 33.596 304.009 33.2293 302.836 32.936C301.692 32.6133 300.533 32.2467 299.36 31.836C298.187 31.4253 297.189 30.7507 296.368 29.812C295.576 28.844 295.18 27.6267 295.18 26.16C295.18 24.136 295.943 22.508 297.468 21.276C299.023 20.044 300.944 19.428 303.232 19.428C305.051 19.428 306.664 19.8387 308.072 20.66C309.509 21.452 310.609 22.5667 311.372 24.004L307.368 26.248C306.605 24.576 305.227 23.74 303.232 23.74C302.323 23.74 301.56 23.9453 300.944 24.356C300.328 24.7373 300.02 25.3093 300.02 26.072Z" fill="#2152FF"/>
<path d="M36.6326 72H41.6486L34.7406 94H30.0766L25.5006 79.172L20.8806 94H16.2166L9.3086 72H14.3246L18.5926 87.18L23.2126 72H27.7446L32.3206 87.18L36.6326 72ZM57.6 71.428C60.1226 71.428 62.1613 72.2347 63.716 73.848C65.2706 75.4613 66.048 77.676 66.048 80.492V94H61.296V80.976C61.296 79.3333 60.856 78.072 59.976 77.192C59.096 76.312 57.8933 75.872 56.368 75.872C54.696 75.872 53.3466 76.4 52.32 77.456C51.2933 78.4827 50.78 80.0667 50.78 82.208V94H46.028V63.2H50.78V74.816C52.2173 72.5573 54.4906 71.428 57.6 71.428ZM86.443 72H91.503L83.055 94.704C80.943 100.395 77.3643 103.093 72.319 102.8V98.356C73.815 98.444 75.0177 98.1213 75.927 97.388C76.8363 96.684 77.5843 95.5693 78.171 94.044L78.391 93.604L69.063 72H74.255L80.811 87.972L86.443 72ZM132.578 72H137.594L130.686 94H126.022L121.446 79.172L116.826 94H112.162L105.254 72H110.27L114.538 87.18L119.158 72H123.69L128.266 87.18L132.578 72ZM144.854 85.024C145.206 86.696 146.013 87.9867 147.274 88.896C148.536 89.776 150.076 90.216 151.894 90.216C154.417 90.216 156.309 89.3067 157.57 87.488L161.486 89.776C159.316 92.9733 156.104 94.572 151.85 94.572C148.272 94.572 145.382 93.4867 143.182 91.316C140.982 89.116 139.882 86.344 139.882 83C139.882 79.7147 140.968 76.972 143.138 74.772C145.309 72.5427 148.096 71.428 151.498 71.428C154.725 71.428 157.365 72.5573 159.418 74.816C161.501 77.0747 162.542 79.8173 162.542 83.044C162.542 83.5427 162.484 84.2027 162.366 85.024H144.854ZM144.81 81.152H157.746C157.424 79.3627 156.676 78.0133 155.502 77.104C154.358 76.1947 153.009 75.74 151.454 75.74C149.694 75.74 148.228 76.224 147.054 77.192C145.881 78.16 145.133 79.48 144.81 81.152ZM203.508 71.428C206.001 71.428 208.01 72.2347 209.536 73.848C211.061 75.4613 211.824 77.632 211.824 80.36V94H207.072V80.668C207.072 79.1427 206.69 77.9693 205.928 77.148C205.165 76.2973 204.124 75.872 202.804 75.872C201.337 75.872 200.164 76.356 199.284 77.324C198.433 78.292 198.008 79.744 198.008 81.68V94H193.256V80.668C193.256 79.1427 192.889 77.9693 192.156 77.148C191.452 76.2973 190.44 75.872 189.12 75.872C187.682 75.872 186.509 76.3707 185.6 77.368C184.69 78.336 184.236 79.7733 184.236 81.68V94H179.484V72H184.236V74.64C185.644 72.4987 187.741 71.428 190.528 71.428C193.344 71.428 195.426 72.5867 196.776 74.904C198.242 72.5867 200.486 71.428 203.508 71.428ZM222.278 67.82C221.691 68.4067 220.987 68.7 220.166 68.7C219.344 68.7 218.626 68.4067 218.01 67.82C217.423 67.204 217.13 66.4853 217.13 65.664C217.13 64.8427 217.423 64.1387 218.01 63.552C218.596 62.936 219.315 62.628 220.166 62.628C221.016 62.628 221.735 62.936 222.322 63.552C222.908 64.1387 223.202 64.8427 223.202 65.664C223.202 66.4853 222.894 67.204 222.278 67.82ZM217.79 94V72H222.542V94H217.79ZM246.451 72H251.115V92.988C251.115 96.332 250.015 98.8987 247.815 100.688C245.615 102.477 242.946 103.372 239.807 103.372C234.732 103.372 231.256 101.597 229.379 98.048L233.471 95.672C234.615 97.9307 236.756 99.06 239.895 99.06C241.948 99.06 243.547 98.5173 244.691 97.432C245.864 96.376 246.451 94.8947 246.451 92.988V90.304C244.662 92.856 242.11 94.132 238.795 94.132C235.686 94.132 233.06 93.032 230.919 90.832C228.778 88.6027 227.707 85.9187 227.707 82.78C227.707 79.6413 228.778 76.972 230.919 74.772C233.06 72.5427 235.686 71.428 238.795 71.428C242.11 71.428 244.662 72.704 246.451 75.256V72ZM234.439 87.708C235.788 89.028 237.46 89.688 239.455 89.688C241.45 89.688 243.107 89.028 244.427 87.708C245.776 86.388 246.451 84.7453 246.451 82.78C246.451 80.8147 245.776 79.172 244.427 77.852C243.107 76.532 241.45 75.872 239.455 75.872C237.46 75.872 235.788 76.532 234.439 77.852C233.119 79.172 232.459 80.8147 232.459 82.78C232.459 84.7453 233.119 86.388 234.439 87.708ZM269.106 71.428C271.629 71.428 273.667 72.2347 275.222 73.848C276.777 75.4613 277.554 77.676 277.554 80.492V94H272.802V80.976C272.802 79.3333 272.362 78.072 271.482 77.192C270.602 76.312 269.399 75.872 267.874 75.872C266.202 75.872 264.853 76.4 263.826 77.456C262.799 78.4827 262.286 80.0667 262.286 82.208V94H257.534V63.2H262.286V74.816C263.723 72.5573 265.997 71.428 269.106 71.428ZM295.827 76.576H290.371V87.136C290.371 88.0453 290.576 88.7053 290.987 89.116C291.397 89.4973 291.999 89.7173 292.791 89.776C293.612 89.8053 294.624 89.7907 295.827 89.732V94C292.189 94.44 289.579 94.132 287.995 93.076C286.411 91.9907 285.619 90.0107 285.619 87.136V76.576H281.571V72H285.619V67.248L290.371 65.84V72H295.827V76.576ZM23.7406 123.428C26.7619 123.428 29.3433 124.543 31.4846 126.772C33.6259 129.001 34.6966 131.744 34.6966 135C34.6966 138.227 33.6259 140.969 31.4846 143.228C29.3433 145.457 26.7619 146.572 23.7406 146.572C20.3966 146.572 17.8299 145.325 16.0406 142.832V146H11.2886V115.2H16.0406V127.124C17.8299 124.66 20.3966 123.428 23.7406 123.428ZM18.0206 140.06C19.3406 141.38 20.9979 142.04 22.9926 142.04C24.9873 142.04 26.6446 141.38 27.9646 140.06C29.2846 138.711 29.9446 137.024 29.9446 135C29.9446 132.976 29.2846 131.304 27.9646 129.984C26.6446 128.635 24.9873 127.96 22.9926 127.96C20.9979 127.96 19.3406 128.635 18.0206 129.984C16.7006 131.304 16.0406 132.976 16.0406 135C16.0406 137.024 16.7006 138.711 18.0206 140.06ZM43.6234 137.024C43.9754 138.696 44.7821 139.987 46.0434 140.896C47.3048 141.776 48.8448 142.216 50.6634 142.216C53.1861 142.216 55.0781 141.307 56.3394 139.488L60.2554 141.776C58.0848 144.973 54.8728 146.572 50.6194 146.572C47.0408 146.572 44.1514 145.487 41.9514 143.316C39.7514 141.116 38.6514 138.344 38.6514 135C38.6514 131.715 39.7368 128.972 41.9074 126.772C44.0781 124.543 46.8648 123.428 50.2674 123.428C53.4941 123.428 56.1341 124.557 58.1874 126.816C60.2701 129.075 61.3114 131.817 61.3114 135.044C61.3114 135.543 61.2528 136.203 61.1354 137.024H43.6234ZM43.5794 133.152H56.5154C56.1928 131.363 55.4448 130.013 54.2714 129.104C53.1274 128.195 51.7781 127.74 50.2234 127.74C48.4634 127.74 46.9968 128.224 45.8234 129.192C44.6501 130.16 43.9021 131.48 43.5794 133.152ZM90.5288 128.576H85.0728V139.136C85.0728 140.045 85.2782 140.705 85.6888 141.116C86.0995 141.497 86.7008 141.717 87.4928 141.776C88.3142 141.805 89.3262 141.791 90.5288 141.732V146C86.8915 146.44 84.2808 146.132 82.6968 145.076C81.1128 143.991 80.3208 142.011 80.3208 139.136V128.576H76.2728V124H80.3208V119.248L85.0728 117.84V124H90.5288V128.576ZM107.291 123.428C109.813 123.428 111.852 124.235 113.407 125.848C114.961 127.461 115.739 129.676 115.739 132.492V146H110.987V132.976C110.987 131.333 110.547 130.072 109.667 129.192C108.787 128.312 107.584 127.872 106.059 127.872C104.387 127.872 103.037 128.4 102.011 129.456C100.984 130.483 100.471 132.067 100.471 134.208V146H95.7188V115.2H100.471V126.816C101.908 124.557 104.181 123.428 107.291 123.428ZM125.475 137.024C125.827 138.696 126.634 139.987 127.895 140.896C129.157 141.776 130.697 142.216 132.515 142.216C135.038 142.216 136.93 141.307 138.191 139.488L142.107 141.776C139.937 144.973 136.725 146.572 132.471 146.572C128.893 146.572 126.003 145.487 123.803 143.316C121.603 141.116 120.503 138.344 120.503 135C120.503 131.715 121.589 128.972 123.759 126.772C125.93 124.543 128.717 123.428 132.119 123.428C135.346 123.428 137.986 124.557 140.039 126.816C142.122 129.075 143.163 131.817 143.163 135.044C143.163 135.543 143.105 136.203 142.987 137.024H125.475ZM125.431 133.152H138.367C138.045 131.363 137.297 130.013 136.123 129.104C134.979 128.195 133.63 127.74 132.075 127.74C130.315 127.74 128.849 128.224 127.675 129.192C126.502 130.16 125.754 131.48 125.431 133.152ZM164.857 127.696C166.06 124.968 168.318 123.604 171.633 123.604V128.752C169.814 128.635 168.23 129.075 166.881 130.072C165.532 131.04 164.857 132.653 164.857 134.912V146H160.105V124H164.857V127.696ZM180.512 119.82C179.925 120.407 179.221 120.7 178.4 120.7C177.579 120.7 176.86 120.407 176.244 119.82C175.657 119.204 175.364 118.485 175.364 117.664C175.364 116.843 175.657 116.139 176.244 115.552C176.831 114.936 177.549 114.628 178.4 114.628C179.251 114.628 179.969 114.936 180.556 115.552C181.143 116.139 181.436 116.843 181.436 117.664C181.436 118.485 181.128 119.204 180.512 119.82ZM176.024 146V124H180.776V146H176.024ZM204.685 124H209.349V144.988C209.349 148.332 208.249 150.899 206.049 152.688C203.849 154.477 201.18 155.372 198.041 155.372C192.967 155.372 189.491 153.597 187.613 150.048L191.705 147.672C192.849 149.931 194.991 151.06 198.129 151.06C200.183 151.06 201.781 150.517 202.925 149.432C204.099 148.376 204.685 146.895 204.685 144.988V142.304C202.896 144.856 200.344 146.132 197.029 146.132C193.92 146.132 191.295 145.032 189.153 142.832C187.012 140.603 185.941 137.919 185.941 134.78C185.941 131.641 187.012 128.972 189.153 126.772C191.295 124.543 193.92 123.428 197.029 123.428C200.344 123.428 202.896 124.704 204.685 127.256V124ZM192.673 139.708C194.023 141.028 195.695 141.688 197.689 141.688C199.684 141.688 201.341 141.028 202.661 139.708C204.011 138.388 204.685 136.745 204.685 134.78C204.685 132.815 204.011 131.172 202.661 129.852C201.341 128.532 199.684 127.872 197.689 127.872C195.695 127.872 194.023 128.532 192.673 129.852C191.353 131.172 190.693 132.815 190.693 134.78C190.693 136.745 191.353 138.388 192.673 139.708ZM227.34 123.428C229.863 123.428 231.902 124.235 233.456 125.848C235.011 127.461 235.788 129.676 235.788 132.492V146H231.036V132.976C231.036 131.333 230.596 130.072 229.716 129.192C228.836 128.312 227.634 127.872 226.108 127.872C224.436 127.872 223.087 128.4 222.06 129.456C221.034 130.483 220.52 132.067 220.52 134.208V146H215.768V115.2H220.52V126.816C221.958 124.557 224.231 123.428 227.34 123.428ZM254.061 128.576H248.605V139.136C248.605 140.045 248.81 140.705 249.221 141.116C249.632 141.497 250.233 141.717 251.025 141.776C251.846 141.805 252.858 141.791 254.061 141.732V146C250.424 146.44 247.813 146.132 246.229 145.076C244.645 143.991 243.853 142.011 243.853 139.136V128.576H239.805V124H243.853V119.248L248.605 117.84V124H254.061V128.576ZM21.6726 198.572C18.3579 198.572 15.5859 197.457 13.3566 195.228C11.1566 192.999 10.0566 190.256 10.0566 187C10.0566 183.715 11.1566 180.972 13.3566 178.772C15.5859 176.543 18.3579 175.428 21.6726 175.428C23.8139 175.428 25.7646 175.941 27.5246 176.968C29.2846 177.995 30.6046 179.373 31.4846 181.104L27.3926 183.48C26.8939 182.424 26.1313 181.603 25.1046 181.016C24.1073 180.4 22.9486 180.092 21.6286 180.092C19.6926 180.092 18.0646 180.752 16.7446 182.072C15.4539 183.392 14.8086 185.035 14.8086 187C14.8086 188.965 15.4539 190.608 16.7446 191.928C18.0646 193.248 19.6926 193.908 21.6286 193.908C22.9193 193.908 24.0779 193.6 25.1046 192.984C26.1606 192.368 26.9526 191.547 27.4806 190.52L31.5726 192.852C30.6339 194.612 29.2846 196.005 27.5246 197.032C25.7646 198.059 23.8139 198.572 21.6726 198.572ZM47.4594 175.428C49.982 175.428 52.0207 176.235 53.5754 177.848C55.13 179.461 55.9074 181.676 55.9074 184.492V198H51.1554V184.976C51.1554 183.333 50.7154 182.072 49.8354 181.192C48.9554 180.312 47.7527 179.872 46.2274 179.872C44.5554 179.872 43.206 180.4 42.1794 181.456C41.1527 182.483 40.6394 184.067 40.6394 186.208V198H35.8874V167.2H40.6394V178.816C42.0767 176.557 44.35 175.428 47.4594 175.428ZM72.2881 198.572C69.0614 198.572 66.3187 197.457 64.0601 195.228C61.8014 192.999 60.6721 190.256 60.6721 187C60.6721 183.744 61.8014 181.001 64.0601 178.772C66.3187 176.543 69.0614 175.428 72.2881 175.428C75.5441 175.428 78.2867 176.543 80.5161 178.772C82.7747 181.001 83.9041 183.744 83.9041 187C83.9041 190.256 82.7747 192.999 80.5161 195.228C78.2867 197.457 75.5441 198.572 72.2881 198.572ZM67.4041 191.972C68.7241 193.292 70.3521 193.952 72.2881 193.952C74.2241 193.952 75.8521 193.292 77.1721 191.972C78.4921 190.652 79.1521 188.995 79.1521 187C79.1521 185.005 78.4921 183.348 77.1721 182.028C75.8521 180.708 74.2241 180.048 72.2881 180.048C70.3521 180.048 68.7241 180.708 67.4041 182.028C66.0841 183.348 65.4241 185.005 65.4241 187C65.4241 188.995 66.0841 190.652 67.4041 191.972ZM93.5689 171.82C92.9823 172.407 92.2783 172.7 91.4569 172.7C90.6356 172.7 89.9169 172.407 89.3009 171.82C88.7143 171.204 88.4209 170.485 88.4209 169.664C88.4209 168.843 88.7143 168.139 89.3009 167.552C89.8876 166.936 90.6063 166.628 91.4569 166.628C92.3076 166.628 93.0263 166.936 93.6129 167.552C94.1996 168.139 94.4929 168.843 94.4929 169.664C94.4929 170.485 94.1849 171.204 93.5689 171.82ZM89.0809 198V176H93.8329V198H89.0809ZM104.37 182.072C104.37 182.805 104.766 183.392 105.558 183.832C106.379 184.243 107.362 184.609 108.506 184.932C109.679 185.225 110.852 185.577 112.026 185.988C113.199 186.399 114.182 187.103 114.974 188.1C115.795 189.068 116.206 190.3 116.206 191.796C116.206 193.908 115.384 195.565 113.742 196.768C112.128 197.971 110.09 198.572 107.626 198.572C105.455 198.572 103.592 198.117 102.038 197.208C100.483 196.299 99.3536 195.037 98.6496 193.424L102.742 191.048C103.504 193.16 105.132 194.216 107.626 194.216C110.119 194.216 111.366 193.395 111.366 191.752C111.366 191.048 110.955 190.476 110.134 190.036C109.342 189.596 108.359 189.229 107.186 188.936C106.042 188.613 104.883 188.247 103.71 187.836C102.536 187.425 101.539 186.751 100.718 185.812C99.9256 184.844 99.5296 183.627 99.5296 182.16C99.5296 180.136 100.292 178.508 101.818 177.276C103.372 176.044 105.294 175.428 107.582 175.428C109.4 175.428 111.014 175.839 112.422 176.66C113.859 177.452 114.959 178.567 115.722 180.004L111.718 182.248C110.955 180.576 109.576 179.74 107.582 179.74C106.672 179.74 105.91 179.945 105.294 180.356C104.678 180.737 104.37 181.309 104.37 182.072ZM124.444 189.024C124.796 190.696 125.603 191.987 126.864 192.896C128.126 193.776 129.666 194.216 131.484 194.216C134.007 194.216 135.899 193.307 137.16 191.488L141.076 193.776C138.906 196.973 135.694 198.572 131.44 198.572C127.862 198.572 124.972 197.487 122.772 195.316C120.572 193.116 119.472 190.344 119.472 187C119.472 183.715 120.558 180.972 122.728 178.772C124.899 176.543 127.686 175.428 131.088 175.428C134.315 175.428 136.955 176.557 139.008 178.816C141.091 181.075 142.132 183.817 142.132 187.044C142.132 187.543 142.074 188.203 141.956 189.024H124.444ZM124.4 185.152H137.336C137.014 183.363 136.266 182.013 135.092 181.104C133.948 180.195 132.599 179.74 131.044 179.74C129.284 179.74 127.818 180.224 126.644 181.192C125.471 182.16 124.723 183.48 124.4 185.152ZM150.624 197.56C149.979 198.205 149.201 198.528 148.292 198.528C147.383 198.528 146.605 198.205 145.96 197.56C145.315 196.915 144.992 196.137 144.992 195.228C144.992 194.319 145.3 193.541 145.916 192.896C146.561 192.251 147.353 191.928 148.292 191.928C149.201 191.928 149.979 192.251 150.624 192.896C151.269 193.541 151.592 194.319 151.592 195.228C151.592 196.137 151.269 196.915 150.624 197.56Z" fill="#0D1F3C"/>
<path fill-rule="evenodd" clip-rule="evenodd" d="M218.97 57.9102C218.954 57.5887 216.746 57.5192 212.772 57.7148C208.798 57.9105 206.59 57.841 206.574 57.5194C206.561 57.2448 206.358 57.0295 206.124 57.041C205.89 57.0525 205.709 57.2867 205.723 57.5613C205.736 57.836 205.46 58.0748 205.109 58.0921C204.757 58.1094 204.459 57.8988 204.445 57.6242C204.408 56.8557 200.647 57.161 200.531 57.9421C200.456 58.4463 200.407 58.4487 200.283 57.9543C200.1 57.224 198.449 57.1901 198.485 57.9177C198.498 58.1923 198.318 58.4264 198.084 58.438C197.85 58.4495 197.647 58.2342 197.633 57.9596C197.62 57.6849 197.417 57.4697 197.183 57.4812C196.949 57.4927 196.768 57.7268 196.782 58.0015C196.795 58.2761 196.519 58.515 196.168 58.5323C195.817 58.5496 195.518 58.339 195.505 58.0644C195.489 57.7488 193.99 57.6384 191.436 57.7641C188.881 57.8899 187.382 57.7795 187.366 57.4639C187.351 57.1478 185.781 57.0414 183.084 57.1742C180.388 57.3069 178.818 57.2005 178.802 56.8844C178.787 56.5848 177.926 56.427 176.649 56.4899C175.372 56.5528 174.51 56.3949 174.496 56.0953C174.481 55.7992 173.69 55.6344 172.555 55.6903C171.42 55.7462 170.629 55.5814 170.615 55.2853C170.6 54.9857 169.739 54.8278 168.461 54.8907C167.184 54.9536 166.323 54.7958 166.308 54.4962C166.293 54.1841 165.006 54.0597 162.877 54.1645C160.749 54.2693 159.462 54.1449 159.447 53.8328C159.433 53.5477 158.784 53.3649 157.932 53.4068C157.081 53.4488 156.432 53.266 156.417 52.9809C156.403 52.6812 155.541 52.5234 154.264 52.5863C152.987 52.6492 152.126 52.4914 152.111 52.1918C152.095 51.8742 150.416 51.7747 147.5 51.9182C142.914 52.144 142.913 52.144 142.331 50.9438C142.01 50.2838 141.731 49.4156 141.712 49.0141C141.692 48.6126 141.55 48.1586 141.395 48.0055C141.171 47.7833 141.165 47.6665 141.367 47.4233C141.505 47.2558 141.597 46.6881 141.571 46.1618C141.541 45.5376 141.672 45.1972 141.95 45.1836C142.184 45.172 142.365 44.9379 142.351 44.6633C142.338 44.3886 142.798 44.1407 143.373 44.1124C144.002 44.0814 144.457 43.8092 144.513 43.4305C144.588 42.9263 144.638 42.9239 144.761 43.4183C144.864 43.8253 145.419 44.0116 146.389 43.9639C147.229 43.9226 147.872 44.1061 147.886 44.3908C147.901 44.6934 148.833 44.8447 150.252 44.7748C151.671 44.705 152.603 44.8563 152.618 45.1589C152.633 45.455 153.423 45.6198 154.559 45.5639C155.694 45.508 156.484 45.6729 156.499 45.969C156.513 46.2436 156.715 46.4589 156.949 46.4474C157.184 46.4358 157.386 46.6511 157.4 46.9257C157.414 47.2254 158.276 47.3832 159.553 47.3203C160.83 47.2574 161.692 47.4152 161.706 47.7148C161.721 48.02 162.718 48.1656 164.268 48.0893C166.098 47.9992 166.843 48.1367 166.943 48.5833C167.048 49.0507 167.133 49.0159 167.29 48.4411C167.448 47.8662 167.533 47.8315 167.637 48.2988C167.726 48.6959 168.227 48.8955 169.036 48.8557C169.733 48.8214 170.306 49.0164 170.32 49.293C170.335 49.6021 171.48 49.7365 173.324 49.6457C175.169 49.5548 176.314 49.6892 176.329 49.9983C176.366 50.7383 178.429 50.5202 178.541 49.7643C178.615 49.2601 178.665 49.2576 178.789 49.7521C178.902 50.203 179.745 50.3307 181.906 50.2243C183.739 50.134 184.878 50.2687 184.893 50.5778C184.909 50.8849 185.976 51.025 187.668 50.9418C189.659 50.8437 190.46 50.977 190.572 51.4245C190.696 51.9189 190.746 51.9165 190.82 51.4123C190.872 51.0653 191.281 50.7639 191.73 50.7418C192.179 50.7197 192.616 50.9795 192.701 51.3197C192.825 51.8141 192.875 51.8117 192.949 51.3075C193.06 50.5617 194.273 50.3903 194.309 51.1154C194.323 51.39 194.813 51.5911 195.398 51.5623C195.983 51.5335 196.473 51.7346 196.487 52.0093C196.5 52.2839 196.703 52.4992 196.937 52.4877C197.171 52.4761 197.352 52.242 197.338 51.9673C197.323 51.6622 198.307 51.4191 199.868 51.3422C202.281 51.2235 202.426 51.2719 202.472 52.2152C202.503 52.8399 202.663 53.2069 202.9 53.1952C203.108 53.185 203.395 52.7204 203.536 52.1628C203.767 51.2569 204.038 51.1369 206.089 51.036C207.476 50.9677 208.393 51.1203 208.408 51.4224C208.421 51.697 208.72 51.9076 209.071 51.8903C209.422 51.873 209.699 51.6341 209.685 51.3595C209.672 51.0848 210.044 50.8413 210.512 50.8182C210.98 50.7952 211.375 51.001 211.388 51.2756C211.402 51.5503 211.7 51.7608 212.051 51.7436C212.403 51.7263 212.679 51.4874 212.665 51.2128C212.629 50.4727 214.703 50.4872 214.889 51.2284C215.013 51.7229 215.063 51.7204 215.137 51.2162C215.252 50.4452 218.163 50.1828 218.2 50.9403C218.214 51.2149 218.512 51.4255 218.863 51.4082C219.215 51.3909 219.513 51.6015 219.527 51.8761C219.54 52.1507 219.072 52.399 218.487 52.4279C217.901 52.4567 217.433 52.705 217.447 52.9796C217.46 53.2542 217.759 53.4648 218.11 53.4475C218.461 53.4302 218.76 53.6408 218.773 53.9154C218.787 54.1901 219.181 54.3959 219.649 54.3729C220.118 54.3498 220.49 54.1062 220.476 53.8316C220.463 53.5569 220.814 53.3144 221.256 53.2926C221.816 53.265 222.139 52.9453 222.318 52.2392C222.555 51.31 222.82 51.2134 225.509 51.081C227.323 50.9917 228.452 51.1273 228.467 51.4359C228.481 51.7106 228.013 51.9589 227.427 51.9877C226.842 52.0165 226.374 52.2648 226.388 52.5394C226.401 52.8141 226.795 53.0199 227.264 52.9969C227.732 52.9738 228.126 53.1797 228.14 53.4543C228.153 53.7289 228.356 53.9442 228.59 53.9327C228.824 53.9212 229.005 53.687 228.991 53.4124C228.978 53.1377 229.158 52.9036 229.392 52.8921C229.627 52.8805 229.807 52.6464 229.794 52.3717C229.78 52.0971 229.673 51.8771 229.556 51.8829C229.439 51.8886 229.332 51.6686 229.319 51.394C229.305 51.1089 229.933 50.8632 230.784 50.8213C232.132 50.7549 232.279 50.8428 232.324 51.7466C232.356 52.4123 232.515 52.7383 232.798 52.7244C233.033 52.7128 233.213 52.4787 233.2 52.2041C233.186 51.9294 233.079 51.7094 232.962 51.7152C232.845 51.721 232.738 51.501 232.725 51.2263C232.711 50.9517 232.987 50.7128 233.339 50.6955C233.69 50.6782 233.988 50.8888 234.002 51.1634C234.016 51.4486 234.665 51.6313 235.517 51.5894C236.368 51.5475 236.996 51.3018 236.982 51.0167C236.969 50.7421 237.245 50.5032 237.596 50.4859C237.947 50.4686 238.246 50.6792 238.259 50.9538C238.273 51.239 238.923 51.4217 239.774 51.3798C240.626 51.3379 241.275 51.5207 241.289 51.8058C241.302 52.0805 241.026 52.3193 240.675 52.3366C240.324 52.3539 240.047 52.5928 240.061 52.8674C240.074 53.142 240.564 53.3432 241.15 53.3143C241.735 53.2855 242.203 53.0372 242.189 52.7626C242.176 52.488 242.069 52.268 241.952 52.2737C241.835 52.2795 241.728 52.0595 241.715 51.7849C241.701 51.5102 241.977 51.2714 242.329 51.2541C242.68 51.2368 242.956 50.9979 242.943 50.7233C242.929 50.4486 243.205 50.2098 243.557 50.1925C243.908 50.1752 244.206 50.3857 244.22 50.6604C244.234 50.938 244.812 51.1318 245.522 51.0969C246.231 51.0619 246.81 51.2557 246.824 51.5333C246.837 51.811 246.28 52.0606 245.571 52.0956C244.861 52.1305 244.305 52.3802 244.318 52.6578C244.332 52.9324 244.63 53.143 244.981 53.1257C245.333 53.1084 245.631 53.319 245.645 53.5936C245.658 53.8683 245.861 54.0835 246.095 54.072C246.329 54.0605 246.51 53.8263 246.496 53.5517C246.461 52.8311 247.259 52.897 247.443 53.6302C247.566 54.1247 247.616 54.1223 247.691 53.618C247.801 52.8732 249.441 52.6774 249.476 53.405C249.491 53.7011 250.282 53.8659 251.417 53.81C252.552 53.7541 253.323 53.5124 253.308 53.2163C253.273 52.4958 254.071 52.5616 254.255 53.2949C254.378 53.7893 254.428 53.7869 254.503 53.2826C254.617 52.5117 257.528 52.2492 257.566 53.0067C257.579 53.2814 257.774 53.497 257.998 53.486C258.223 53.4749 258.459 53.7426 258.525 54.0813C258.611 54.529 258.729 54.4646 258.958 53.8452C259.328 52.8418 259.312 51.5877 258.925 51.3145C258.725 51.1736 258.736 50.8888 258.965 50.2698C259.31 49.3343 259.934 49.0959 259.973 49.8848C259.986 50.1625 260.565 50.3562 261.274 50.3213C261.984 50.2864 262.563 50.4801 262.576 50.7578C262.59 51.0324 262.505 51.2618 262.388 51.2676C262.271 51.2734 262.186 51.5028 262.2 51.7774C262.213 52.0551 262.792 52.2488 263.501 52.2139C264.521 52.1637 264.771 51.9927 264.74 51.3666C264.719 50.9346 264.823 50.2537 264.971 49.8535C265.279 49.0179 265.897 48.8499 265.933 49.5914C265.947 49.866 266.341 50.0719 266.809 50.0488C267.277 50.0258 267.672 50.2316 267.685 50.5063C267.699 50.7809 267.518 51.015 267.284 51.0266C267.039 51.0386 266.875 51.3806 266.897 51.832C266.961 53.1333 267.569 54.0159 268.374 53.9763C268.792 53.9557 269.146 54.1635 269.159 54.4382C269.173 54.7158 268.616 54.9655 267.906 55.0004C267.197 55.0354 266.618 54.8416 266.605 54.564C266.591 54.2893 266.388 54.074 266.154 54.0856C265.92 54.0971 265.74 54.3312 265.753 54.6059C265.767 54.8805 265.586 55.1147 265.352 55.1262C265.118 55.1377 264.915 54.9224 264.902 54.6478C264.888 54.3732 264.398 54.172 263.813 54.2008C263.227 54.2297 262.759 54.478 262.773 54.7526C262.789 55.0712 261.029 55.339 257.919 55.4921C254.225 55.674 253.018 55.8851 252.947 56.3626C252.873 56.8668 252.823 56.8693 252.699 56.3748C252.509 55.6188 249.587 55.6436 249.624 56.4011C249.637 56.6757 249.457 56.9099 249.223 56.9214C248.989 56.9329 248.786 56.7176 248.772 56.443C248.737 55.7179 247.523 55.8893 247.413 56.6351C247.338 57.1393 247.288 57.1418 247.164 56.6473C246.981 55.914 246.182 55.8482 246.218 56.5688C246.233 56.8684 245.391 57.11 244.114 57.1729C242.836 57.2358 241.975 57.078 241.96 56.7784C241.947 56.5037 241.648 56.2932 241.297 56.3105C240.946 56.3278 240.67 56.5666 240.683 56.8413C240.72 57.5838 238.642 57.5684 238.476 56.8248C238.371 56.3574 238.286 56.3921 238.129 56.967C237.971 57.5419 237.886 57.5766 237.782 57.1092C237.604 56.3161 219.782 57.0694 219.822 57.8683C219.835 58.143 219.655 58.3771 219.42 58.3886C219.186 58.4002 218.984 58.1849 218.97 57.9102ZM269.963 53.439C269.924 52.638 270.005 51.8457 270.144 51.6782C270.345 51.435 270.339 51.3182 270.115 51.0959C269.243 50.2313 270.172 49.8832 273.834 49.703C276.388 49.5772 277.888 49.6876 277.903 50.0032C277.917 50.2778 277.832 50.5073 277.715 50.513C277.598 50.5188 277.513 50.7482 277.527 51.0229C277.542 51.33 278.616 51.4698 280.319 51.386C282.021 51.3021 283.095 51.442 283.11 51.7491C283.124 52.0342 282.496 52.2799 281.645 52.3218C280.793 52.3637 280.165 52.6094 280.179 52.8945C280.194 53.2016 279.146 53.446 277.454 53.5292C275.463 53.6273 274.679 53.8386 274.611 54.2949C274.537 54.7991 274.487 54.8016 274.363 54.3071C274.18 53.5758 272.955 53.5245 272.991 54.2495C273.005 54.5347 272.377 54.7803 271.525 54.8223L270.035 54.8956L269.963 53.439ZM286.14 52.6011C286.126 52.3264 285.828 52.1159 285.477 52.1331C284.98 52.1576 284.827 51.9429 284.789 51.1659C284.762 50.6166 284.644 50.1719 284.527 50.1777C284.41 50.1834 284.292 49.7387 284.265 49.1894C284.222 48.3241 284.358 48.1837 285.28 48.1383C285.865 48.1095 286.355 48.3106 286.369 48.5853C286.382 48.8599 286.585 49.0752 286.819 49.0637C287.053 49.0521 287.234 48.818 287.22 48.5434C287.207 48.2657 287.764 48.0161 288.473 47.9811C289.183 47.9462 289.761 48.14 289.775 48.4176C289.788 48.6922 289.608 48.9264 289.374 48.9379C289.14 48.9494 288.959 49.1836 288.973 49.4582C288.986 49.7329 288.71 49.9717 288.359 49.989C288.007 50.0063 287.731 50.2452 287.745 50.5198C287.758 50.7945 287.865 51.0144 287.982 51.0087C288.099 51.0029 288.206 51.2229 288.219 51.4976C288.233 51.7722 288.052 52.0063 287.818 52.0179C287.584 52.0294 287.404 52.2635 287.417 52.5382C287.431 52.8128 287.154 53.0517 286.803 53.069C286.452 53.0863 286.153 52.8757 286.14 52.6011ZM261.373 52.3187C261.315 51.1497 260.777 51.02 260.386 52.0815C259.993 53.143 260.069 53.384 260.783 53.3489C261.28 53.3244 261.411 53.0957 261.373 52.3187ZM273.719 51.7109C273.687 51.0452 273.528 50.7191 273.244 50.7331C273.01 50.7446 272.83 50.9788 272.843 51.2534C272.857 51.5281 272.676 51.7622 272.442 51.7737C272.208 51.7853 272.005 51.57 271.992 51.2954C271.978 51.0207 271.871 50.8007 271.754 50.8065C271.637 50.8122 271.564 51.2664 271.591 51.8157C271.633 52.681 271.782 52.8074 272.704 52.762C273.627 52.7166 273.762 52.5762 273.719 51.7109ZM292.903 51.267C292.889 50.9923 292.591 50.7818 292.239 50.7991C291.591 50.831 291.349 50.1652 291.807 49.6105C292.009 49.3673 292.003 49.2505 291.779 49.0282C291.343 48.5962 291.406 47.8367 291.879 47.8134C292.113 47.8019 292.294 47.5678 292.28 47.2931C292.245 46.5726 293.043 46.6384 293.227 47.3717C293.35 47.8661 293.4 47.8637 293.475 47.3595C293.586 46.6117 294.373 46.4678 294.409 47.1883C294.422 47.463 294.721 47.6735 295.072 47.6562C295.423 47.6389 295.722 47.8495 295.735 48.1241C295.771 48.8462 296.565 48.7 296.634 47.9593C296.729 46.9224 297.476 48.7948 297.547 50.2519C297.594 51.2027 297.5 51.5412 297.185 51.5567C296.951 51.5683 296.748 51.353 296.734 51.0783C296.721 50.8037 296.518 50.5884 296.284 50.5999C296.05 50.6115 295.869 50.8456 295.883 51.1203C295.919 51.8603 293.845 51.8458 293.659 51.1046C293.535 50.6101 293.486 50.6126 293.411 51.1168C293.299 51.8686 292.938 51.9756 292.903 51.267ZM298.399 50.21C298.37 49.6238 298.935 48.4672 299.257 48.4513C299.441 48.4423 299.581 48.2101 299.567 47.9355C299.554 47.6609 299.734 47.4267 299.968 47.4152C300.202 47.4037 300.405 47.6189 300.419 47.8936C300.432 48.1682 300.273 48.4013 300.064 48.4116C299.856 48.4218 299.57 48.8864 299.428 49.444C299.196 50.3544 298.434 50.9221 298.399 50.21ZM302.223 49.0166C301.736 47.9538 301.705 47.7256 301.951 47.0583C302.131 46.5714 302.652 46.2819 303.416 46.2443C304.592 46.1864 304.603 46.1989 304.676 47.684C304.733 48.849 304.655 49.1867 304.324 49.203C304.09 49.2145 303.909 49.4487 303.923 49.7233C303.971 50.708 302.768 50.2081 302.223 49.0166ZM247.675 51.4914C247.661 51.2003 248.36 50.9571 249.353 50.9082C250.347 50.8593 251.067 51.0326 251.081 51.3237C251.095 51.6148 250.396 51.858 249.403 51.9069C248.409 51.9558 247.689 51.7825 247.675 51.4914ZM252.358 51.2608C252.343 50.9517 253.469 50.7056 255.314 50.6148C257.159 50.5239 258.304 50.6583 258.319 50.9674C258.334 51.2765 257.208 51.5226 255.363 51.6135C253.518 51.7043 252.373 51.5699 252.358 51.2608ZM305.831 48.38C305.381 47.3414 305.398 46.1467 305.862 46.1239C306.086 46.1129 306.312 45.8199 306.363 45.4735C306.438 44.9693 306.488 44.9668 306.612 45.4613C306.795 46.1926 308.019 46.2439 307.984 45.5189C307.969 45.2228 308.74 44.9811 309.875 44.9252C311.649 44.8379 311.795 44.9048 311.84 45.8296C311.867 46.3789 311.985 46.8236 312.102 46.8178C312.219 46.812 312.304 46.5826 312.29 46.308C312.277 46.0303 312.834 45.7807 313.543 45.7457C314.253 45.7108 314.809 45.4612 314.796 45.1835C314.782 44.9089 315.154 44.6653 315.623 44.6422C316.332 44.6073 316.482 44.7666 316.523 45.599C316.562 46.376 316.43 46.6047 315.934 46.6292C315.583 46.6465 315.306 46.8853 315.32 47.16C315.333 47.4346 315.057 47.6735 314.706 47.6908C314.354 47.708 314.056 47.4975 314.043 47.2228C314.029 46.9482 313.826 46.7329 313.592 46.7445C313.358 46.756 313.178 46.9901 313.191 47.2648C313.206 47.5674 312.293 47.8095 310.874 47.8794C309.455 47.9493 308.542 48.1914 308.557 48.494C308.596 49.288 306.18 49.1872 305.831 48.38ZM317.751 44.5374C317.697 43.4389 317.749 42.5353 317.866 42.5295C317.983 42.5238 318.09 42.7438 318.103 43.0184C318.117 43.3035 318.767 43.4863 319.618 43.4444C320.47 43.4025 321.098 43.1568 321.084 42.8717C321.068 42.5521 322.975 42.278 326.381 42.1103C329.787 41.9426 331.694 41.6686 331.678 41.349C331.643 40.6284 332.441 40.6942 332.624 41.4275C332.748 41.922 332.798 41.9195 332.873 41.4153C332.938 40.9731 333.597 40.754 335.077 40.6811C336.343 40.6188 337.178 40.3769 337.164 40.0778C337.149 39.7817 337.92 39.54 339.055 39.4841C340.655 39.4053 340.964 39.2605 340.932 38.6053C340.875 37.4383 341.361 36.3672 341.961 36.3377C342.253 36.3233 342.533 36.0277 342.584 35.6813C342.659 35.177 342.709 35.1746 342.833 35.669C342.937 36.0874 343.533 36.2603 344.673 36.2042C345.654 36.1558 346.368 36.3299 346.383 36.6205C346.418 37.3411 347.206 37.1972 347.317 36.4494C347.391 35.9452 347.441 35.9427 347.565 36.4372C347.65 36.7769 347.999 37.0415 348.341 37.0247C349.184 36.9832 349.199 38.0877 348.384 40.2927L347.732 42.0603L342.527 42.3165C338.571 42.5113 337.285 42.4245 337.167 41.9547C337.043 41.4603 336.993 41.4627 336.919 41.9669C336.867 42.3134 336.458 42.6153 336.009 42.6374C335.561 42.6595 335.124 42.3992 335.038 42.0595C334.915 41.5651 334.865 41.5675 334.79 42.0717C334.739 42.4182 334.513 42.7111 334.289 42.7221C334.064 42.7332 333.892 42.9669 333.905 43.2416C333.919 43.5182 333.368 43.7686 332.67 43.8029C331.871 43.8423 331.377 44.0954 331.317 44.4953C331.243 44.9995 331.193 45.0019 331.069 44.5075C330.885 43.7742 330.087 43.7084 330.123 44.4289C330.136 44.7036 329.764 44.9471 329.296 44.9702C328.827 44.9933 328.433 44.7874 328.42 44.5128C328.406 44.2381 328.203 44.0229 327.969 44.0344C327.735 44.0459 327.555 44.28 327.568 44.5547C327.582 44.8293 327.305 45.0682 326.954 45.0855C326.603 45.1028 326.327 45.3416 326.34 45.6163C326.354 45.8909 325.886 46.1392 325.3 46.168C324.715 46.1969 324.225 45.9957 324.211 45.7211C324.198 45.4464 324.003 45.2308 323.779 45.2418C323.554 45.2529 323.301 44.9835 323.216 44.6438C323.092 44.1494 323.042 44.1518 322.968 44.6561C322.916 45.0025 322.595 45.3001 322.253 45.3169C321.912 45.3337 321.643 45.5722 321.657 45.8468C321.671 46.143 320.901 46.3846 319.766 46.4405L317.85 46.5348L317.751 44.5374Z" fill="#2152FF"/>
<defs>
<linearGradient id="paint0_linear" x1="24.1003" y1="0" x2="24.1003" y2="53" gradientUnits="userSpaceOnUse">
<stop stop-color="#2152FF"/>
<stop offset="1" stop-color="#0075FF"/>
</linearGradient>
</defs>
</svg>
