<svg width="113" height="115" viewBox="0 0 113 115" fill="none" xmlns="http://www.w3.org/2000/svg">
<path d="M56.248 18.254L36.6027 17C33.7312 29.6351 33.7269 36.5978 37.0207 48.7668L4 51.6927V71.3379C17.0566 69.7978 24.3781 69.2218 37.4387 70.9199C35.8676 82.2108 35.6397 88.4662 36.6027 99.7608H60.8458C58.7188 88.6627 58.2996 82.4355 60.8458 71.3379L92.1946 67.1581L89.6867 47.9308L58.7559 47.0948C55.1917 35.888 54.296 29.5743 56.248 18.254Z" fill="#FFEB33"/>
<path d="M100.387 46.2973C100.821 45.2312 100.358 43.7348 99.0935 43.5513C94.7396 42.9206 89.8479 43.9617 85.41 44.0016C80.3756 44.0478 75.3241 43.8861 70.2927 44.0907C70.2897 44.0895 70.2862 44.0901 70.2826 44.0889C70.6512 43.8232 70.8957 43.406 70.8183 42.7944C70.2236 38.0824 69.361 33.4271 68.9665 28.6865C68.6014 24.3019 69.263 19.7677 68.5624 15.45C68.3471 14.1281 67.1748 13.7056 66.1032 13.9376C65.842 12.9855 65.0693 12.1824 63.7666 12.141C61.2311 12.0615 58.6906 12.2086 56.1536 12.1657C53.2981 12.1175 50.5244 11.6746 47.695 11.3739C46.1725 11.2122 45.6241 12.5391 45.923 13.7035C42.1485 15.7708 43.1178 24.2158 43.2765 27.5996C43.4822 31.9881 43.7368 37.416 45.2143 41.9329C45.0824 41.9695 44.9484 41.9969 44.8165 42.0347C43.8398 42.3152 44.229 43.7771 45.2152 43.5543C45.4055 43.5112 45.5972 43.4844 45.7875 43.4436C45.8498 43.5945 45.8992 43.7565 45.9647 43.9048C44.9728 43.9695 43.9613 44.1395 43.0073 44.2068C39.4931 44.4546 35.9756 44.6579 32.4601 44.8884C29.0067 45.1148 25.5547 45.3682 22.1021 45.6013C20.7645 45.6919 17.7666 46.4929 16.2855 46.1177C15.5283 45.361 14.2917 45.1231 13.4523 46.0543C11.1136 48.6492 11.2199 53.7709 11.0862 57.1309C10.9546 60.4388 11.197 63.802 12.1174 66.9875C11.7756 67.1894 11.49 67.4196 11.2932 67.6897C10.9118 68.0652 10.7614 68.6259 11.1672 69.2313C12.802 71.6667 19.1214 70.4103 21.553 70.2352C30.0003 69.628 38.1618 67.5902 46.6743 68.4872C46.6183 68.6253 46.5689 68.7695 46.5367 68.9285C45.7265 72.9353 45.7744 77.2523 45.5678 81.3196C45.3269 86.0446 45.0547 90.9552 45.6014 95.6674C45.6374 95.978 45.7277 96.2505 45.8477 96.4974C45.5124 97.2794 45.9483 98.3365 47.0247 98.3773C53.6122 98.6278 60.2166 97.5355 66.7856 97.958C67.5417 98.0066 68.2218 97.9232 68.8423 97.7731C69.9765 99.0688 72.7213 98.4244 72.5956 96.3726C72.037 87.2358 72.2645 78.2872 72.9297 69.1736C72.9714 69.1813 73.0054 69.2069 73.0482 69.2123C78.7397 69.9234 85.0791 68.4714 90.712 67.7159C93.6479 67.3222 101.826 67.6489 103.471 64.4259C103.831 63.7198 103.754 62.8872 103.184 62.3101C103.17 62.2958 103.151 62.2869 103.137 62.2729C103.614 62.0733 104.002 61.6725 104.135 61.0382C104.61 58.7598 104.211 56.2343 104.127 53.9273C104.052 51.8648 104.581 48.0855 102.76 46.6606C101.975 46.0459 101.178 45.931 100.387 46.2973ZM49.0957 15.836C53.7316 17.1567 59.1081 17.3353 63.7669 17.1912C63.8282 17.1894 63.88 17.1745 63.939 17.1692C63.7815 18.1075 63.7288 19.0739 63.7139 20.0476C61.3035 19.952 58.8463 20.2397 56.4565 20.4041C53.7781 20.5878 51.1 20.7528 48.4189 20.882C48.4287 20.7281 48.4272 20.5729 48.4382 20.419C48.5544 18.8431 49.1815 17.341 49.0957 15.836ZM48.3266 23.0541C50.6831 23.0482 53.0387 22.9996 55.3958 22.918C58.1624 22.8218 61.0135 22.943 63.7877 22.7158C63.8473 23.5508 63.9229 24.3852 64.0179 25.211C61.5724 25.4341 59.0402 26.1809 56.6518 26.4195C53.887 26.6955 51.1029 26.6991 48.3307 26.5329C48.3013 25.373 48.3019 24.2134 48.3266 23.0541ZM48.3873 28.7056C48.3811 28.5981 48.384 28.4903 48.379 28.3828C51.4591 28.6478 54.5371 28.6761 57.6282 28.4608C59.6911 28.3173 62.1732 28.2518 64.3079 27.6344C64.3526 27.9829 64.399 28.345 64.4407 28.6856C64.5688 29.7285 64.7418 30.7746 64.9038 31.8205C62.8295 31.9438 60.7517 32.4578 58.7245 32.8491C55.4732 33.4771 52.2425 34.0733 48.9507 34.3249C48.7083 32.4548 48.4912 30.582 48.3873 28.7056ZM49.2068 36.2867C51.4835 36.1647 53.7447 35.933 56.0083 35.5816C58.991 35.1179 62.2784 34.8898 65.2861 34.1766C65.5446 35.6 65.8227 37.0223 66.1582 38.4288C63.0844 38.5452 59.8239 39.3885 56.8185 39.7712C54.4561 40.072 52.1094 40.4213 49.7814 40.8721C49.6198 39.3448 49.4134 37.8162 49.2068 36.2867ZM49.8639 45.0391C49.9866 44.7949 50.0727 44.5248 50.0575 44.2035C50.0348 43.7098 49.9726 43.2151 49.9345 42.7214C52.6066 42.3438 55.2964 42.0928 57.9902 41.8685C60.7416 41.6392 64.0792 41.7497 66.7579 40.7456C66.9896 41.5758 67.2156 42.4087 67.4845 43.2238C67.6914 43.8506 68.2244 44.2229 68.8042 44.3554C68.7205 44.4194 68.6532 44.5088 68.5782 44.5862C62.4832 44.4114 56.3153 44.8664 50.1486 45.6037C50.0932 45.4024 50.0039 45.2095 49.8639 45.0391ZM67.726 92.6901C67.5729 92.8926 67.4645 93.1183 67.4056 93.3631C66.9003 93.3509 66.3941 93.3455 65.8897 93.3217C63.8931 93.2261 61.991 93.4507 60.0237 93.7654C56.8039 94.2809 53.4362 94.4125 50.1849 94.9566C50.1706 94.1454 50.2099 93.3348 50.2153 92.5236C52.6763 92.4959 55.1356 92.3724 57.5847 92.107C60.205 91.8235 64.6512 91.8158 66.5373 89.767C67.1939 89.0532 66.7186 87.9883 65.7756 87.9278C64.5994 87.8522 63.6484 88.368 62.5371 88.7247C60.8297 89.2733 59.0637 89.5934 57.2979 89.8846C54.9635 90.2706 52.6019 90.4662 50.2391 90.6273C50.2716 89.2429 50.3403 87.859 50.4112 86.4755C53.9025 86.5604 57.3965 86.4585 60.8774 86.1679C62.6678 86.0181 65.5142 86.0607 67.2165 84.9913C67.2635 87.572 67.408 90.1446 67.726 92.6901ZM67.1998 82.5482C67.1703 82.5462 67.1453 82.536 67.1153 82.5363C64.9958 82.5667 62.7045 83.5831 60.5873 83.922C57.2548 84.4562 53.865 84.7105 50.4934 84.8299C50.572 83.5113 50.6804 82.1951 50.7769 80.877C53.3004 80.4712 55.8011 79.9381 58.2734 79.2851C60.4956 78.6981 63.66 78.2708 65.2379 76.4117C66.032 75.4757 65.0327 73.9361 63.8765 74.6243C60.1246 76.8566 55.3258 78.1621 50.9076 79.0507C51.047 77.2413 51.1765 75.4358 51.3126 73.6279C54.2849 73.1354 57.264 72.7223 60.2631 72.4073C62.4555 72.1771 65.3775 72.4835 67.6849 71.9168C67.438 75.4418 67.2242 78.9914 67.1998 82.5482ZM72.5233 65.1454C71.8989 65.2362 71.4906 65.5158 71.2548 65.8851C69.8484 65.5804 68.0818 66.3657 67.9386 68.2439C67.9234 68.4443 67.9115 68.6503 67.8966 68.8511C65.3948 68.6903 62.3403 69.7558 59.9641 70.0881C57.1276 70.4841 54.2637 70.8457 51.4716 71.5023C51.5171 70.8629 51.5719 70.2215 51.6148 69.583C51.719 68.0256 50.4374 67.137 49.1287 67.0706C49.417 65.8121 48.7083 64.1659 47.0247 63.9557C38.9961 62.956 31.1452 64.4706 23.199 65.4771C21.7972 65.6546 18.3711 65.5694 15.4985 65.9908C15.4923 65.9464 15.4923 65.9023 15.4863 65.8577C38.1534 62.6612 60.4837 62.8604 83.0981 63.7165C79.5699 64.1754 76.042 64.6317 72.5233 65.1454ZM98.9815 53.927C99.1849 56.1869 99.2986 59.2166 100.491 61.2562C100.046 61.216 99.572 61.2184 99.0872 61.2392C72.0439 57.3498 41.9264 57.1952 15.3386 64.2591C15.2445 62.9024 15.2666 61.5427 15.3553 60.1836C42.5934 56.6866 69.785 53.7167 97.2506 56.3983C98.9934 56.5684 99.3841 53.5833 97.6434 53.3516C70.4913 49.7269 42.3998 53.4347 15.562 58.286C15.6236 57.77 15.6495 57.2533 15.7308 56.7384C16.103 54.3883 17.2324 51.2999 17.1237 48.7064C18.835 49.3059 20.9849 49.4768 23.0832 49.5009C21.4568 49.7094 19.8364 49.9041 18.229 50.0679C17.269 50.1656 17.2312 51.6441 18.229 51.5944C35.0513 50.7478 52.1588 47.2782 69.0326 48.0412C69.2544 48.1153 69.4995 48.1722 69.7931 48.1877C70.9442 48.2478 72.1002 48.2782 73.254 48.3261C77.3402 48.6945 81.4116 49.3404 85.4582 50.3749C86.7169 50.6968 87.4937 49.631 87.4127 48.643C91.3024 48.7189 95.732 48.8422 99.1703 47.3571C98.0912 49.1147 98.8177 52.1069 98.9815 53.927Z" fill="#0D1F3C"/>
</svg>
