<svg width="186" height="62" viewBox="0 0 186 62" fill="none" xmlns="http://www.w3.org/2000/svg">
<mask id="path-1-inside-1" fill="white">
<path d="M46.1197 46.8699C50.1971 42.7925 52.9003 36.9188 52.9377 31.1526C52.9751 25.3864 50.7396 19.8375 46.7154 15.7075C42.6912 11.5776 37.2022 9.19903 31.4369 9.08689C25.6717 8.97476 20.0943 11.1381 15.9125 15.1084C11.7308 19.0787 9.28122 24.5365 9.09435 30.2998C8.90748 36.0631 10.9983 41.6681 14.9141 45.901C18.8299 50.1339 24.2554 52.6539 30.0158 52.9155C35.7762 53.1771 41.8364 50.7305 46.1197 46.8699L44.7651 45.2652C42.9387 43.8197 40.3631 43.9809 38.2955 45.0534C35.8494 46.3223 33.0922 46.9414 30.2929 46.8143C26.1369 46.6255 22.2226 44.8074 19.3975 41.7535C16.5723 38.6996 15.0639 34.6558 15.1987 30.4977C15.3335 26.3397 17.1008 22.4021 20.1178 19.5376C23.1348 16.6732 27.1587 15.1124 31.3182 15.1933C35.4776 15.2742 39.4378 16.9903 42.3411 19.9699C45.2444 22.9495 46.8573 26.9528 46.8303 31.113C46.8121 33.9262 46.0449 36.658 44.6404 39.0418C43.4907 40.9931 43.3115 43.5285 44.7651 45.2652L46.1197 46.8699Z"/>
</mask>
<path d="M39.0341 50.1031L40.3887 51.7078L51.8508 42.032L50.4962 40.4273L39.0341 50.1031ZM46.1197 46.8699L56.1622 58.0121L56.4512 57.7516L56.7263 57.4765L46.1197 46.8699ZM30.2929 46.8143L30.9733 31.8297L30.2929 46.8143ZM46.8303 31.113L31.8306 31.0157L46.8303 31.113ZM44.6404 39.0418L57.5639 46.6564L44.6404 39.0418ZM38.2955 45.0534L45.2025 58.3686L38.2955 45.0534ZM56.7263 57.4765C63.2897 50.9132 67.8718 41.3697 67.9374 31.2498L37.938 31.0553C37.9289 32.4679 37.1046 34.6718 35.5131 36.2633L56.7263 57.4765ZM67.9374 31.2498C68.0004 21.5391 64.2357 12.1944 57.4587 5.23934L35.9722 26.1757C37.2436 27.4805 37.9498 29.2336 37.938 31.0553L67.9374 31.2498ZM57.4587 5.23934C50.6816 -1.71575 41.4377 -5.72142 31.7286 -5.91027L31.1452 24.0841C32.9667 24.1195 34.7008 24.871 35.9722 26.1757L57.4587 5.23934ZM31.7286 -5.91027C22.0196 -6.09911 12.6269 -2.45593 5.58449 4.23037L26.2406 25.9865C27.5617 24.7321 29.3238 24.0486 31.1452 24.0841L31.7286 -5.91027ZM5.58449 4.23037C-1.45788 10.9167 -5.58307 20.1079 -5.89777 29.8137L24.0865 30.7859C24.1455 28.9651 24.9194 27.2408 26.2406 25.9865L5.58449 4.23037ZM-5.89777 29.8137C-6.21248 39.5195 -2.69138 48.9586 3.90306 56.0871L25.9251 35.7148C24.688 34.3775 24.0274 32.6067 24.0865 30.7859L-5.89777 29.8137ZM3.90306 56.0871C10.4975 63.2156 19.6345 67.4596 29.3354 67.9001L30.6962 37.931C28.8763 37.8483 27.1622 37.0521 25.9251 35.7148L3.90306 56.0871ZM29.3354 67.9001C39.4949 68.3614 49.3086 64.1893 56.1622 58.0121L36.0772 35.7277C34.3643 37.2716 32.0575 37.9928 30.6962 37.931L29.3354 67.9001ZM31.3885 31.7383C31.2606 31.8046 31.1179 31.8363 30.9733 31.8297L29.6124 61.7988C35.0665 62.0465 40.4381 60.84 45.2025 58.3686L31.3885 31.7383ZM30.9733 31.8297C30.7579 31.8199 30.5549 31.7257 30.4085 31.5673L8.38642 51.9396C13.8902 57.8891 21.516 61.4312 29.6124 61.7988L30.9733 31.8297ZM30.4085 31.5673C30.262 31.409 30.1838 31.1994 30.1908 30.9838L0.20657 30.0116C-0.0560844 38.1122 2.88266 45.9901 8.38642 51.9396L30.4085 31.5673ZM30.1908 30.9838C30.1978 30.7683 30.2894 30.5642 30.4458 30.4157L9.78976 8.65959C3.91214 14.24 0.469228 21.9111 0.20657 30.0116L30.1908 30.9838ZM30.4458 30.4157C30.6022 30.2672 30.8108 30.1863 31.0265 30.1905L31.6099 0.19613C23.5066 0.0385178 15.6674 3.07915 9.78976 8.65959L30.4458 30.4157ZM31.0265 30.1905C31.2421 30.1947 31.4474 30.2836 31.5979 30.4381L53.0843 9.50168C47.4282 3.69691 39.7131 0.353741 31.6099 0.19613L31.0265 30.1905ZM31.5979 30.4381C31.7484 30.5925 31.832 30.8001 31.8306 31.0157L61.83 31.2102C61.8825 23.1056 58.7405 15.3065 53.0843 9.50168L31.5979 30.4381ZM31.8306 31.0157C31.8297 31.1611 31.7903 31.3025 31.7169 31.4271L57.5639 46.6564C60.2995 42.0136 61.7944 36.6914 61.83 31.2102L31.8306 31.0157ZM31.7169 31.4271C28.5114 36.8676 26.4337 46.7339 33.2625 54.8928L56.2677 35.6376C58.1588 37.897 58.738 40.4346 58.7262 42.3273C58.7151 44.1194 58.2048 45.5687 57.5639 46.6564L31.7169 31.4271ZM45.2025 58.3686C44.3367 58.8177 43.1153 59.2236 41.5369 59.2148C39.8674 59.2055 37.5712 58.7011 35.456 57.0271L54.0742 33.5033C46.0588 27.1595 36.6659 29.0007 31.3885 31.7383L45.2025 58.3686Z" fill="white" mask="url(#path-1-inside-1)"/>
<rect x="24.6484" y="22.1582" width="4.24406" height="13.4395" rx="2.12203" fill="white"/>
<rect x="33.1367" y="27.4634" width="4.24407" height="8.13446" rx="2.12203" fill="white"/>
<path d="M72.3488 21.3855C72.3488 22.1508 71.7285 22.7711 70.9633 22.7711H64.9027V27.7087H70.7109C71.4761 27.7087 72.0964 28.329 72.0964 29.0942C72.0964 29.8594 71.4761 30.4797 70.7109 30.4797H64.9027V36.1828C64.9027 36.9844 64.2529 37.6342 63.4514 37.6342C62.6498 37.6342 62 36.9844 62 36.1828V23C62 21.3431 63.3431 20 65 20H70.9633C71.7285 20 72.3488 20.6203 72.3488 21.3855Z" fill="white"/>
<path d="M80.8444 37.9617C78.9934 37.9617 77.4201 37.3235 76.1244 36.0471C74.8287 34.7707 74.1808 33.2004 74.1808 31.3363C74.1808 29.4721 74.8287 27.9018 76.1244 26.6254C77.4201 25.349 78.9934 24.7108 80.8444 24.7108C82.7123 24.7108 84.2856 25.349 85.5645 26.6254C86.8602 27.9018 87.5081 29.4721 87.5081 31.3363C87.5081 33.2004 86.8602 34.7707 85.5645 36.0471C84.2856 37.3235 82.7123 37.9617 80.8444 37.9617ZM78.0427 34.1829C78.7999 34.9387 79.7338 35.3165 80.8444 35.3165C81.9551 35.3165 82.889 34.9387 83.6462 34.1829C84.4034 33.4272 84.7821 32.4783 84.7821 31.3363C84.7821 30.1942 84.4034 29.2453 83.6462 28.4896C82.889 27.7338 81.9551 27.356 80.8444 27.356C79.7338 27.356 78.7999 27.7338 78.0427 28.4896C77.2855 29.2453 76.9068 30.1942 76.9068 31.3363C76.9068 32.4783 77.2855 33.4272 78.0427 34.1829Z" fill="white"/>
<path d="M92.6991 27.1544C93.2021 26.0157 94.0271 25.2921 95.1741 24.9836C95.9348 24.779 96.5862 25.4502 96.5862 26.2379C96.5862 27.0617 95.8715 27.6805 95.0802 27.9095C94.6419 28.0363 94.2352 28.2381 93.8602 28.5148C93.0861 29.069 92.6991 29.9927 92.6991 31.2859V36.2712C92.6991 37.0239 92.0888 37.6342 91.3361 37.6342C90.5833 37.6342 89.973 37.0239 89.973 36.2712V26.4014C89.973 25.6486 90.5833 25.0383 91.3361 25.0383C92.0888 25.0383 92.6991 25.6486 92.6991 26.4014V27.1544Z" fill="white"/>
<path d="M108.055 26.3761C108.055 25.6373 108.654 25.0383 109.393 25.0383C110.131 25.0383 110.73 25.6373 110.73 26.3761V37.0548C110.73 38.9693 110.099 40.4388 108.837 41.4633C107.575 42.4878 106.044 43 104.243 43C101.895 43 100.144 42.3391 98.9893 41.0172C98.5143 40.4735 98.7554 39.6654 99.3801 39.3034C100.047 38.9168 100.887 39.209 101.486 39.6943C102.175 40.2522 103.111 40.5312 104.294 40.5312C105.472 40.5312 106.389 40.2205 107.045 39.5991C107.718 38.9945 108.055 38.1464 108.055 37.0548V35.5181C107.028 36.9792 105.564 37.7097 103.663 37.7097C101.879 37.7097 100.373 37.08 99.1446 35.8204C97.9162 34.544 97.302 33.0073 97.302 31.2103C97.302 29.4133 97.9162 27.885 99.1446 26.6254C100.373 25.349 101.879 24.7108 103.663 24.7108C105.564 24.7108 107.028 25.4414 108.055 26.9025V26.3761ZM101.164 34.0318C101.938 34.7875 102.897 35.1654 104.041 35.1654C105.186 35.1654 106.136 34.7875 106.894 34.0318C107.668 33.276 108.055 32.3355 108.055 31.2103C108.055 30.0851 107.668 29.1446 106.894 28.3888C106.136 27.6331 105.186 27.2552 104.041 27.2552C102.897 27.2552 101.938 27.6331 101.164 28.3888C100.407 29.1446 100.028 30.0851 100.028 31.2103C100.028 32.3355 100.407 33.276 101.164 34.0318Z" fill="white"/>
<path d="M116.053 32.4951C116.255 33.4524 116.718 34.1913 117.441 34.7119C118.165 35.2158 119.048 35.4677 120.092 35.4677C121.062 35.4677 121.869 35.2338 122.514 34.766C123.064 34.3669 123.801 34.1697 124.388 34.5121C125.04 34.8926 125.243 35.7612 124.696 36.2818C123.518 37.4017 121.975 37.9617 120.067 37.9617C118.014 37.9617 116.356 37.3403 115.094 36.0975C113.832 34.8379 113.201 33.2508 113.201 31.3363C113.201 29.4553 113.824 27.885 115.069 26.6254C116.314 25.349 117.913 24.7108 119.865 24.7108C121.716 24.7108 123.23 25.3574 124.408 26.6506C125.603 27.9438 126.2 29.5141 126.2 31.3614C126.2 31.647 126.166 32.0248 126.099 32.4951H116.053ZM116.028 30.2782H123.449C123.264 29.2537 122.835 28.4812 122.162 27.9606C121.505 27.4399 120.731 27.1796 119.839 27.1796C118.83 27.1796 117.988 27.4567 117.315 28.011C116.642 28.5652 116.213 29.3209 116.028 30.2782Z" fill="white"/>
<path d="M131.577 27.9354C131.207 28.3049 130.761 28.4896 130.239 28.4896C129.718 28.4896 129.272 28.3049 128.902 27.9354C128.532 27.5659 128.346 27.1208 128.346 26.6002C128.346 26.0628 128.523 25.6177 128.876 25.2651C129.247 24.8956 129.701 24.7108 130.239 24.7108C130.761 24.7108 131.207 24.8956 131.577 25.2651C131.947 25.6345 132.133 26.0796 132.133 26.6002C132.133 27.1208 131.947 27.5659 131.577 27.9354ZM131.577 37.3823C131.207 37.7517 130.761 37.9365 130.239 37.9365C129.718 37.9365 129.272 37.7517 128.902 37.3823C128.532 37.0128 128.346 36.5677 128.346 36.0471C128.346 35.5265 128.523 35.0814 128.876 34.7119C129.247 34.3425 129.701 34.1577 130.239 34.1577C130.761 34.1577 131.207 34.3425 131.577 34.7119C131.947 35.0814 132.133 35.5265 132.133 36.0471C132.133 36.5677 131.947 37.0128 131.577 37.3823Z" fill="white"/>
<path d="M140.989 37.9617C139.088 37.9617 137.498 37.3235 136.219 36.0471C134.957 34.7707 134.326 33.2004 134.326 31.3363C134.326 29.4553 134.957 27.885 136.219 26.6254C137.498 25.349 139.088 24.7108 140.989 24.7108C142.218 24.7108 143.337 25.0047 144.346 25.5926C144.968 25.9545 145.494 26.3929 145.924 26.9077C146.379 27.4514 146.138 28.2388 145.525 28.5941C144.85 28.9853 143.992 28.6779 143.38 28.1939C143.249 28.0905 143.108 27.996 142.958 27.9102C142.386 27.5575 141.721 27.3812 140.964 27.3812C139.853 27.3812 138.919 27.759 138.162 28.5148C137.422 29.2705 137.052 30.211 137.052 31.3363C137.052 32.4615 137.422 33.402 138.162 34.1577C138.919 34.9135 139.853 35.2913 140.964 35.2913C141.704 35.2913 142.369 35.115 142.958 34.7623C143.133 34.6602 143.296 34.5482 143.446 34.4264C144.037 33.9464 144.873 33.6653 145.534 34.0418C146.166 34.4007 146.408 35.2113 145.936 35.7635C145.495 36.2811 144.965 36.7199 144.346 37.08C143.337 37.6678 142.218 37.9617 140.989 37.9617Z" fill="white"/>
<path d="M155.277 24.7108C156.724 24.7108 157.894 25.1727 158.786 26.0964C159.678 27.0201 160.124 28.2881 160.124 29.9003V36.2712C160.124 37.0239 159.513 37.6342 158.761 37.6342C158.008 37.6342 157.398 37.0239 157.398 36.2712V30.1774C157.398 29.2369 157.145 28.5148 156.64 28.011C156.135 27.5071 155.446 27.2552 154.571 27.2552C153.611 27.2552 152.837 27.5575 152.248 28.1621C151.659 28.7499 151.365 29.6568 151.365 30.8828V36.2712C151.365 37.0239 150.755 37.6342 150.002 37.6342C149.249 37.6342 148.639 37.0239 148.639 36.2712V21.363C148.639 20.6102 149.249 20 150.002 20C150.755 20 151.365 20.6102 151.365 21.363V26.6506C152.189 25.3574 153.494 24.7108 155.277 24.7108Z" fill="white"/>
<path d="M173.054 26.4014C173.054 25.6486 173.665 25.0383 174.417 25.0383C175.17 25.0383 175.78 25.6486 175.78 26.4014V36.2712C175.78 37.0239 175.17 37.6342 174.417 37.6342C173.665 37.6342 173.054 37.0239 173.054 36.2712V35.8204C172.028 37.2479 170.555 37.9617 168.637 37.9617C166.904 37.9617 165.423 37.3235 164.195 36.0471C162.966 34.7539 162.352 33.1836 162.352 31.3363C162.352 29.4721 162.966 27.9018 164.195 26.6254C165.423 25.349 166.904 24.7108 168.637 24.7108C170.555 24.7108 172.028 25.4162 173.054 26.8269V26.4014ZM166.214 34.2333C166.971 34.989 167.922 35.3669 169.066 35.3669C170.21 35.3669 171.161 34.989 171.918 34.2333C172.676 33.4608 173.054 32.4951 173.054 31.3363C173.054 30.1774 172.676 29.2202 171.918 28.4644C171.161 27.6919 170.21 27.3056 169.066 27.3056C167.922 27.3056 166.971 27.6919 166.214 28.4644C165.457 29.2202 165.078 30.1774 165.078 31.3363C165.078 32.4951 165.457 33.4608 166.214 34.2333Z" fill="white"/>
<path d="M186 26.3483C186 27.0718 185.414 27.6583 184.69 27.6583H182.87V33.7043C182.87 34.2249 182.988 34.6028 183.223 34.8379C183.459 35.0562 183.804 35.1822 184.258 35.2158C184.389 35.2204 184.528 35.2232 184.676 35.2239C185.397 35.2278 186 35.7944 186 36.5154C186 37.1539 185.523 37.6998 184.886 37.7308C183.371 37.8047 182.245 37.5961 181.507 37.1052C180.598 36.4838 180.144 35.3501 180.144 33.7043V27.6583H179.132C178.408 27.6583 177.822 27.0718 177.822 26.3483C177.822 25.6248 178.408 25.0383 179.132 25.0383H180.144V23.3359C180.144 22.732 180.541 22.2001 181.121 22.0289C181.994 21.7706 182.87 22.4251 182.87 23.3359V25.0383H184.69C185.414 25.0383 186 25.6248 186 26.3483Z" fill="white"/>
</svg>
