<svg width="53" height="53" viewBox="0 0 53 53" fill="none" xmlns="http://www.w3.org/2000/svg">
<circle cx="26.5" cy="26.5" r="25.5" stroke="url(#paint0_linear)" stroke-width="2"/>
<path d="M39.9773 26.1999C39.2866 23.4426 35.3402 21.2716 33.0683 19.7803C29.6388 17.529 25.9292 15.5665 22.2331 13.727C22.1328 12.7403 20.5202 12.7548 20.5415 13.7897C20.5712 15.205 20.5589 16.6246 20.5255 18.0469C20.391 18.0863 20.3226 18.301 20.4739 18.4115C20.4881 18.422 20.5028 18.4316 20.517 18.4422C20.3316 25.4521 19.6132 32.5237 20.274 39.4679C20.316 39.9104 20.719 40.0754 21.0364 39.9685C21.1063 39.9799 21.18 39.9795 21.2592 39.956C24.9222 38.8671 28.2478 36.6679 31.2974 34.4889C33.9921 32.5633 37.7759 29.9749 39.3024 26.9655C39.712 26.9925 40.0988 26.6862 39.9773 26.1999ZM21.4922 38.7104C21.5678 37.9477 21.6335 37.1804 21.6984 36.4131C22.244 36.8968 22.8592 37.3624 23.5046 37.6416C22.8405 38.0068 22.1742 38.3687 21.4922 38.7104ZM24.0645 37.3406C23.6711 37.0583 23.2328 36.8358 22.8258 36.5714C22.4493 36.327 22.0979 36.0503 21.7565 35.7626C21.8162 35.0209 21.8692 34.2767 21.9194 33.5319C22.484 34.0503 23.0563 34.5604 23.643 35.0549C24.1603 35.4908 24.8365 36.1807 25.5472 36.4673C25.0569 36.7638 24.5648 37.0581 24.0645 37.3406ZM26.1714 36.0841C25.5768 35.4362 24.5989 34.9728 23.9055 34.4268C23.2378 33.9015 22.5975 33.3452 21.9684 32.7771C22.0002 32.2757 22.0178 31.7713 22.0453 31.2687C23.178 32.0313 24.2074 32.9242 25.2225 33.829C25.7942 34.339 26.3967 34.9867 27.0555 35.5163C26.7619 35.7073 26.4687 35.8986 26.1714 36.0841ZM27.8157 35.0133C27.0396 34.3271 26.1212 33.7058 25.3692 33.0826C24.3247 32.2166 23.2479 31.3799 22.0753 30.6812C22.0934 30.3315 22.1031 29.9809 22.1192 29.6307C23.6196 30.3424 25.0155 31.2567 26.3721 32.1927C27.2333 32.7871 28.067 33.5775 28.9664 34.2081C28.5845 34.4795 28.2036 34.7522 27.8157 35.0133ZM31.0432 32.6595C30.5815 33.0262 30.1117 33.3789 29.6389 33.7263C28.5866 32.8655 27.2358 32.1607 26.1786 31.4623C24.891 30.6119 23.5588 29.8183 22.1372 29.2C22.1779 28.2738 22.2077 27.3466 22.2363 26.4194C24.7594 28.806 27.9618 31.1636 31.0363 32.6403C31.0438 32.6439 31.0513 32.6435 31.0587 32.6464C31.0535 32.6506 31.0486 32.6553 31.0432 32.6595ZM31.4749 32.2997C31.4599 32.2617 31.4369 32.2249 31.3963 32.1912C30.0436 31.0725 28.4059 30.2487 26.922 29.2978C25.2757 28.243 23.7328 27.0757 22.258 25.8135C22.286 24.8101 22.3048 23.8072 22.3181 22.8049C25.8397 25.5448 29.2943 28.4813 33.0189 30.9229C32.5186 31.3943 32.0077 31.8567 31.4749 32.2997ZM33.5941 30.3727C30.0195 27.4636 26.1261 24.7916 22.3237 22.1381C22.3318 21.3312 22.3294 20.5265 22.3284 19.7215C26.6815 22.706 31.2142 25.282 35.1329 28.8512C34.6228 29.3602 34.1128 29.8698 33.5941 30.3727ZM30.1293 23.8233C27.5757 22.1899 24.8992 20.7427 22.3295 19.1347C22.3269 18.5414 22.3122 17.9522 22.3052 17.3605C26.8904 20.8332 31.7875 24.3501 36.7534 27.2665C36.4096 27.5926 36.0694 27.9219 35.7321 28.2553C34.3612 26.3899 32.0452 25.0489 30.1293 23.8233ZM37.4571 26.6228C34.7507 24.8474 32.0225 23.1086 29.3417 21.2947C27.075 19.761 24.7901 18.0053 22.2974 16.7971C22.2891 16.2412 22.2888 15.6827 22.2745 15.1292C24.842 16.6464 27.4745 18.0604 29.9926 19.658C31.8858 20.8591 33.737 22.1082 35.4876 23.4979C36.4489 24.2611 37.1972 25.2373 38.0568 26.081C37.8526 26.2569 37.6568 26.4419 37.4571 26.6228Z" fill="#03D0FD"/>
<defs>
<linearGradient id="paint0_linear" x1="3.5" y1="45" x2="53" y2="6.5" gradientUnits="userSpaceOnUse">
<stop stop-color="#04CDFB"/>
<stop offset="1" stop-color="white" stop-opacity="0"/>
</linearGradient>
</defs>
</svg>
