<svg width="420" height="32" viewBox="0 0 420 32" fill="none" xmlns="http://www.w3.org/2000/svg">
<path fill-rule="evenodd" clip-rule="evenodd" d="M156.585 29.5479C156.569 29.2262 152.121 29.2667 144.103 29.661C136.084 30.0554 131.636 30.0958 131.62 29.7742C131.607 29.4994 131.209 29.2937 130.737 29.3169C130.264 29.3402 129.889 29.5839 129.902 29.8587C129.916 30.1334 129.347 30.3867 128.638 30.4215C127.929 30.4564 127.338 30.2601 127.325 29.9854C127.287 29.2167 119.692 29.7104 119.419 30.4993C119.244 31.0087 119.143 31.0136 118.919 30.524C118.586 29.8008 115.261 29.8492 115.297 30.5769C115.31 30.8516 114.935 31.0954 114.462 31.1187C113.99 31.1419 113.592 30.9361 113.578 30.6614C113.565 30.3867 113.167 30.1809 112.695 30.2042C112.222 30.2274 111.847 30.4712 111.86 30.7459C111.874 31.0206 111.305 31.2739 110.596 31.3088C109.887 31.3436 109.296 31.1474 109.283 30.8727C109.267 30.557 106.251 30.5211 101.096 30.7746C95.9415 31.0281 92.9254 30.9921 92.9099 30.6764C92.8943 30.3603 89.7352 30.3319 84.2939 30.5995C78.8525 30.8671 75.6934 30.8387 75.6778 30.5225C75.6631 30.2228 73.9349 30.1075 71.3575 30.2342C68.7801 30.361 67.052 30.2457 67.0372 29.946C67.0226 29.6498 65.4373 29.524 63.1465 29.6366C60.8556 29.7493 59.2703 29.6235 59.2557 29.3273C59.2409 29.0276 57.5128 28.9123 54.9354 29.0391C52.358 29.1658 50.6298 29.0505 50.6151 28.7508C50.5997 28.4386 48.013 28.3781 43.7173 28.5893C39.4216 28.8006 36.835 28.74 36.8196 28.4278C36.8055 28.1426 35.5063 27.9917 33.788 28.0762C32.0697 28.1607 30.7704 28.0098 30.7564 27.7246C30.7416 27.4249 29.0135 27.3096 26.436 27.4364C23.8586 27.5631 22.1305 27.4478 22.1157 27.1481C22.1001 26.8305 18.7198 26.8145 12.836 27.1038C3.58178 27.5589 3.58049 27.559 2.46589 26.3846C1.85273 25.7388 1.33468 24.882 1.31489 24.4804C1.2951 24.0788 1.031 23.6307 0.727556 23.4849C0.286514 23.2732 0.280754 23.1564 0.698852 22.9025C0.986493 22.7276 1.20022 22.1538 1.17427 21.6274C1.14349 21.003 1.42605 20.6551 1.98621 20.6276C2.45874 20.6044 2.83428 20.3606 2.82074 20.0859C2.8072 19.8111 3.74676 19.5396 4.90831 19.4825C6.17769 19.4201 7.10789 19.1245 7.24018 18.7419C7.41574 18.2326 7.51626 18.2277 7.74106 18.7173C7.9267 19.1203 9.03691 19.2795 10.9936 19.1832C12.6883 19.0999 13.9755 19.2519 13.9896 19.5366C14.0045 19.8393 15.8755 19.9445 18.7395 19.8037C21.6034 19.6629 23.4744 19.7681 23.4893 20.0708C23.5039 20.367 25.0892 20.4928 27.3801 20.3802C29.671 20.2675 31.2562 20.3933 31.2708 20.6895C31.2844 20.9643 31.6821 21.17 32.1546 21.1468C32.6271 21.1235 33.0248 21.3293 33.0384 21.604C33.0531 21.9037 34.7813 22.019 37.3587 21.8923C39.9361 21.7655 41.6642 21.8808 41.679 22.1805C41.694 22.4857 43.6964 22.582 46.8228 22.4282C50.5154 22.2466 52.0111 22.3473 52.1906 22.7901C52.3779 23.2536 52.5512 23.2145 52.8971 22.6302C53.2429 22.0459 53.4162 22.0068 53.6036 22.4703C53.7633 22.864 54.7632 23.0391 56.3939 22.9589C57.802 22.8897 58.9466 23.0567 58.9603 23.3334C58.9755 23.6426 61.2758 23.7203 64.9989 23.5372C68.722 23.3541 71.0222 23.4317 71.0375 23.7409C71.074 24.4811 75.2424 24.1595 75.5062 23.396C75.6817 22.8866 75.7822 22.8817 76.007 23.3713C76.2125 23.8179 77.9043 23.9039 82.2666 23.6894C85.9656 23.5075 88.2543 23.5857 88.2695 23.8949C88.2847 24.2021 90.43 24.2893 93.8429 24.1215C97.8615 23.9239 99.4689 24.0176 99.6729 24.4607C99.8977 24.9503 99.9982 24.9454 100.174 24.436C100.295 24.0856 101.135 23.7629 102.04 23.7184C102.946 23.6738 103.814 23.9125 103.969 24.2494C104.193 24.739 104.294 24.7341 104.469 24.2248C104.73 23.4714 107.184 23.2391 107.22 23.9643C107.233 24.2391 108.211 24.4163 109.392 24.3582C110.574 24.3001 111.551 24.4773 111.565 24.7521C111.578 25.0268 111.976 25.2325 112.449 25.2093C112.921 25.1861 113.297 24.9423 113.283 24.6676C113.268 24.3624 115.263 24.0695 118.413 23.9146C123.282 23.6752 123.571 23.7165 123.617 24.66C123.648 25.2849 123.953 25.6449 124.431 25.6214C124.851 25.6008 125.452 25.1206 125.765 24.5544C126.275 23.6346 126.828 23.5007 130.966 23.2973C133.766 23.1596 135.606 23.2669 135.621 23.5691C135.634 23.8438 136.225 24.04 136.934 24.0052C137.643 23.9703 138.212 23.717 138.198 23.4423C138.185 23.1676 138.947 22.9048 139.892 22.8583C140.837 22.8118 141.621 22.9986 141.635 23.2733C141.648 23.548 142.239 23.7443 142.948 23.7094C143.657 23.6746 144.226 23.4213 144.212 23.1465C144.176 22.4063 148.355 22.3174 148.693 23.0514C148.918 23.541 149.018 23.5361 149.194 23.0267C149.463 22.2479 155.344 21.8396 155.381 22.5973C155.394 22.872 155.985 23.0683 156.694 23.0334C157.403 22.9985 157.994 23.1948 158.008 23.4695C158.021 23.7442 157.066 24.0165 155.884 24.0746C154.703 24.1327 153.748 24.405 153.761 24.6797C153.775 24.9545 154.366 25.1507 155.074 25.1159C155.783 25.081 156.374 25.2772 156.388 25.552C156.401 25.8267 157.186 26.0134 158.131 25.967C159.076 25.9205 159.838 25.6577 159.824 25.383C159.811 25.1082 160.53 24.8475 161.423 24.8036C162.554 24.748 163.22 24.4114 163.617 23.6944C164.139 22.7509 164.68 22.6407 170.106 22.3739C173.765 22.1939 176.034 22.2736 176.05 22.5823C176.063 22.857 175.108 23.1293 173.926 23.1874C172.745 23.2455 171.79 23.5178 171.803 23.7925C171.817 24.0672 172.601 24.2539 173.546 24.2075C174.491 24.161 175.275 24.3477 175.289 24.6225C175.302 24.8972 175.7 25.1029 176.173 25.0797C176.645 25.0565 177.021 24.8127 177.007 24.538C176.994 24.2632 177.369 24.0195 177.842 23.9962C178.314 23.973 178.69 23.7292 178.676 23.4545C178.663 23.1798 178.458 22.9645 178.222 22.9761C177.986 22.9877 177.781 22.7725 177.768 22.4978C177.754 22.2125 179.032 21.9349 180.75 21.8504C183.471 21.7166 183.762 21.7974 183.806 22.7015C183.839 23.3673 184.142 23.6864 184.715 23.6582C185.187 23.635 185.563 23.3912 185.549 23.1165C185.536 22.8418 185.331 22.6265 185.095 22.6381C184.859 22.6497 184.654 22.4345 184.641 22.1598C184.627 21.885 185.196 21.6317 185.905 21.5969C186.614 21.562 187.205 21.7583 187.218 22.033C187.232 22.3182 188.532 22.4691 190.25 22.3846C191.968 22.3001 193.246 22.0225 193.232 21.7372C193.219 21.4625 193.788 21.2092 194.496 21.1744C195.205 21.1395 195.796 21.3358 195.81 21.6105C195.824 21.8957 197.123 22.0466 198.841 21.9621C200.56 21.8776 201.859 22.0285 201.873 22.3137C201.887 22.5884 201.318 22.8417 200.609 22.8766C199.9 22.9114 199.331 23.1647 199.345 23.4394C199.358 23.7142 200.336 23.8914 201.517 23.8333C202.699 23.7752 203.654 23.5029 203.641 23.2282C203.627 22.9535 203.423 22.7382 203.186 22.7498C202.95 22.7615 202.746 22.5462 202.732 22.2715C202.719 21.9968 203.287 21.7435 203.996 21.7086C204.705 21.6738 205.274 21.4205 205.26 21.1457C205.247 20.871 205.816 20.6177 206.524 20.5829C207.233 20.548 207.824 20.7443 207.838 21.019C207.851 21.2967 209.008 21.4621 210.44 21.3917C211.872 21.3213 213.028 21.4868 213.042 21.7645C213.056 22.0422 211.921 22.3203 210.489 22.3907C209.057 22.4611 207.923 22.7392 207.936 23.0169C207.95 23.2917 208.541 23.4879 209.25 23.4531C209.958 23.4182 210.549 23.6145 210.563 23.8892C210.576 24.1639 210.974 24.3696 211.447 24.3464C211.919 24.3232 212.295 24.0794 212.281 23.8047C212.246 23.0839 213.851 23.1101 214.185 23.8362C214.41 24.3259 214.51 24.3209 214.686 23.8116C214.946 23.0593 218.259 22.7812 218.295 23.5089C218.31 23.8051 219.895 23.9309 222.186 23.8183C224.477 23.7056 226.042 23.4249 226.027 23.1287C225.992 22.4079 227.597 22.4341 227.931 23.1602C228.156 23.6499 228.256 23.6449 228.432 23.1356C228.701 22.3568 234.581 21.9484 234.619 22.7062C234.632 22.9809 235.014 23.1874 235.467 23.1651C235.92 23.1429 236.384 23.3995 236.498 23.7358C236.65 24.1805 236.891 24.11 237.383 23.4775C238.18 22.4529 238.209 21.1962 237.442 20.9415C237.047 20.8103 237.083 20.5241 237.575 19.892C238.318 18.9367 239.587 18.6665 239.626 19.4557C239.64 19.7334 240.796 19.8989 242.228 19.8285C243.66 19.7581 244.816 19.9235 244.83 20.2012C244.844 20.4759 244.661 20.7102 244.425 20.7218C244.189 20.7334 244.007 20.9677 244.02 21.2424C244.034 21.5201 245.19 21.6856 246.622 21.6152C248.679 21.514 249.192 21.3301 249.161 20.7037C249.14 20.2717 249.383 19.5838 249.701 19.1751C250.364 18.3218 251.617 18.1225 251.654 18.8642C251.667 19.1389 252.452 19.3257 253.397 19.2792C254.342 19.2327 255.126 19.4195 255.14 19.6942C255.153 19.9689 254.778 20.2127 254.305 20.2359C253.81 20.2603 253.462 20.6113 253.485 21.0629C253.549 22.3645 254.731 23.2192 256.355 23.1393C257.199 23.0978 257.901 23.2886 257.914 23.5634C257.928 23.8411 256.793 24.1192 255.361 24.1896C253.93 24.26 252.773 24.0946 252.759 23.8169C252.746 23.5421 252.348 23.3364 251.875 23.3596C251.403 23.3829 251.027 23.6266 251.041 23.9014C251.054 24.1761 250.679 24.4199 250.206 24.4431C249.734 24.4663 249.336 24.2606 249.323 23.9859C249.309 23.7111 248.332 23.5339 247.15 23.592C245.969 23.6501 245.013 23.9224 245.027 24.1971C245.043 24.5158 241.484 24.8721 235.207 25.1807C227.752 25.5473 225.31 25.8192 225.143 26.3015C224.967 26.8109 224.867 26.8158 224.642 26.3262C224.298 25.5775 218.405 25.7481 218.443 26.5058C218.456 26.7806 218.081 27.0243 217.608 27.0476C217.136 27.0708 216.738 26.8651 216.725 26.5903C216.689 25.8651 214.235 26.0974 213.974 26.8508C213.799 27.3601 213.698 27.3651 213.473 26.8754C213.14 26.1493 211.534 26.1231 211.57 26.8438C211.584 27.1435 209.876 27.4278 207.299 27.5546C204.721 27.6813 202.993 27.566 202.978 27.2664C202.965 26.9916 202.374 26.7954 201.665 26.8302C200.956 26.8651 200.387 27.1184 200.401 27.3931C200.438 28.1358 196.252 28.224 195.953 27.4867C195.765 27.0232 195.592 27.0623 195.246 27.6466C194.9 28.2309 194.727 28.27 194.54 27.8065C194.221 27.0201 158.264 28.6642 158.303 29.4634C158.317 29.7381 157.941 29.9819 157.469 30.0051C156.996 30.0283 156.598 29.8226 156.585 29.5479ZM259.585 22.5213C259.546 21.7201 259.749 20.9216 260.036 20.7467C260.454 20.4928 260.448 20.376 260.007 20.1643C258.294 19.3408 260.184 18.9455 267.573 18.5821C272.727 18.3286 275.743 18.3645 275.759 18.6802C275.773 18.9549 275.59 19.1892 275.354 19.2008C275.118 19.2124 274.936 19.4467 274.949 19.7214C274.964 20.0286 277.122 20.1153 280.558 19.9463C283.995 19.7773 286.152 19.864 286.167 20.1711C286.181 20.4563 284.903 20.734 283.185 20.8185C281.467 20.903 280.188 21.1807 280.202 21.4659C280.218 21.773 278.091 22.0704 274.678 22.2382C270.66 22.4359 269.069 22.6868 268.91 23.1478C268.734 23.6571 268.634 23.6621 268.409 23.1724C268.076 22.4483 265.611 22.4578 265.646 23.1831C265.66 23.4683 264.382 23.746 262.664 23.8305L259.657 23.9783L259.585 22.5213ZM292.23 20.8744C292.217 20.5996 291.626 20.4034 290.917 20.4382C289.915 20.4875 289.617 20.2798 289.579 19.5026C289.552 18.9532 289.337 18.5132 289.1 18.5248C288.864 18.5364 288.649 18.0964 288.622 17.5469C288.579 16.6813 288.859 16.5339 290.72 16.4423C291.901 16.3842 292.879 16.5615 292.893 16.8362C292.906 17.1109 293.304 17.3167 293.776 17.2934C294.249 17.2702 294.624 17.0264 294.611 16.7517C294.597 16.474 295.732 16.1959 297.164 16.1255C298.595 16.0551 299.752 16.2205 299.766 16.4982C299.779 16.7729 299.404 17.0167 298.931 17.0399C298.459 17.0632 298.083 17.307 298.097 17.5817C298.11 17.8564 297.541 18.1097 296.833 18.1445C296.124 18.1794 295.555 18.4327 295.569 18.7074C295.582 18.9821 295.786 19.1974 296.023 19.1858C296.259 19.1741 296.463 19.3894 296.477 19.6641C296.49 19.9388 296.115 20.1826 295.642 20.2059C295.17 20.2291 294.794 20.4729 294.808 20.7476C294.821 21.0223 294.253 21.2756 293.544 21.3105C292.835 21.3453 292.244 21.1491 292.23 20.8744ZM242.326 21.8264C242.269 20.6571 241.192 20.5539 240.349 21.6378C239.505 22.7217 239.646 22.9596 241.087 22.8888C242.089 22.8395 242.365 22.6036 242.326 21.8264ZM267.242 20.6012C267.209 19.9353 266.906 19.6163 266.333 19.6444C265.861 19.6677 265.485 19.9115 265.499 20.1862C265.512 20.4609 265.137 20.7047 264.664 20.7279C264.192 20.7511 263.794 20.5454 263.78 20.2707C263.767 19.996 263.562 19.7807 263.326 19.7923C263.09 19.8039 262.919 20.263 262.946 20.8124C262.988 21.678 263.282 21.7973 265.143 21.7058C267.004 21.6142 267.284 21.4668 267.242 20.6012ZM305.927 19.1994C305.914 18.9247 305.323 18.7284 304.614 18.7633C303.306 18.8276 302.851 18.172 303.803 17.593C304.221 17.3391 304.215 17.2222 303.774 17.0106C302.918 16.5991 303.082 15.8344 304.037 15.7875C304.509 15.7642 304.885 15.5204 304.871 15.2457C304.836 14.525 306.441 14.5512 306.775 15.2773C307 15.7669 307.1 15.762 307.276 15.2527C307.537 14.4973 309.132 14.3137 309.167 15.0345C309.181 15.3092 309.772 15.5054 310.48 15.4706C311.189 15.4357 311.78 15.632 311.794 15.9067C311.829 16.629 313.438 16.4427 313.612 15.6966C313.857 14.6521 315.267 16.4924 315.339 17.9499C315.386 18.901 315.18 19.2451 314.543 19.2764C314.071 19.2996 313.673 19.0938 313.66 18.8191C313.646 18.5444 313.248 18.3386 312.776 18.3619C312.303 18.3851 311.928 18.6289 311.941 18.9036C311.978 19.6439 307.798 19.7328 307.46 18.9988C307.236 18.5092 307.135 18.5141 306.96 19.0234C306.697 19.7829 305.962 19.9081 305.927 19.1994ZM317.058 17.8654C317.029 17.279 318.225 16.0911 318.876 16.0591C319.247 16.0409 319.54 15.8012 319.526 15.5264C319.512 15.2517 319.888 15.0079 320.361 14.9847C320.833 14.9615 321.231 15.1672 321.244 15.4419C321.258 15.7167 320.925 15.9584 320.505 15.979C320.084 15.9997 319.484 16.4798 319.17 17.046C318.658 17.9705 317.093 18.5777 317.058 17.8654ZM324.825 16.478C323.897 15.4366 323.845 15.2094 324.375 14.5279C324.762 14.0307 325.827 13.7145 327.369 13.6387C329.741 13.522 329.762 13.534 329.836 15.0194C329.893 16.1847 329.719 16.5273 329.05 16.5602C328.578 16.5834 328.202 16.8272 328.216 17.1019C328.264 18.0869 325.865 17.6456 324.825 16.478ZM214.76 21.68C214.746 21.3888 216.167 21.1101 218.172 21.0115C220.177 20.9129 221.619 21.0508 221.633 21.342C221.648 21.6332 220.226 21.9119 218.221 22.0105C216.216 22.109 214.774 21.9712 214.76 21.68ZM224.211 21.2152C224.195 20.906 226.477 20.6031 230.2 20.42C233.923 20.2369 236.223 20.3145 236.239 20.6237C236.254 20.9329 233.972 21.2359 230.249 21.4189C226.526 21.602 224.226 21.5244 224.211 21.2152ZM332.128 15.6598C331.274 14.6408 331.368 13.442 332.304 13.396C332.756 13.3737 333.226 13.0687 333.347 12.7188C333.522 12.2095 333.623 12.2045 333.848 12.6942C334.181 13.4183 336.646 13.4087 336.61 12.6835C336.596 12.3873 338.161 12.1065 340.452 11.9939C344.031 11.8178 344.322 11.8777 344.367 12.8027C344.394 13.3522 344.61 13.7922 344.846 13.7806C345.082 13.769 345.264 13.5347 345.251 13.26C345.237 12.9822 346.372 12.7041 347.804 12.6337C349.236 12.5633 350.37 12.2852 350.357 12.0075C350.343 11.7328 351.105 11.47 352.05 11.4235C353.482 11.3531 353.777 11.5053 353.818 12.338C353.856 13.1152 353.58 13.351 352.578 13.4003C351.869 13.4352 351.301 13.6885 351.314 13.9632C351.328 14.2379 350.759 14.4912 350.05 14.526C349.341 14.5609 348.75 14.3646 348.737 14.0899C348.723 13.8152 348.326 13.6095 347.853 13.6327C347.38 13.6559 347.005 13.8997 347.018 14.1744C347.033 14.4771 345.182 14.7655 342.318 14.9063C339.454 15.0471 337.602 15.3355 337.617 15.6382C337.656 16.4323 332.791 16.4518 332.128 15.6598ZM356.346 11.2122C356.292 10.1134 356.441 9.20478 356.677 9.19316C356.913 9.18154 357.118 9.3968 357.131 9.67152C357.145 9.95673 358.445 10.1076 360.163 10.0231C361.881 9.93863 363.159 9.66098 363.145 9.37577C363.129 9.0561 366.987 8.68615 373.86 8.34815C380.733 8.01015 384.59 7.64021 384.574 7.32053C384.539 6.59977 386.144 6.62597 386.478 7.3521C386.703 7.84174 386.803 7.8368 386.979 7.32746C387.133 6.88077 388.471 6.62821 391.459 6.48129C394.012 6.3557 395.709 6.0715 395.694 5.7723C395.679 5.47611 397.245 5.19535 399.536 5.08269C402.764 4.92393 403.395 4.76319 403.363 4.10787C403.305 2.94056 404.339 1.84229 405.55 1.78272C406.138 1.7538 406.718 1.44339 406.839 1.09346C407.014 0.584132 407.115 0.579189 407.34 1.06883C407.53 1.48305 408.722 1.62675 411.022 1.51363C413.003 1.41622 414.433 1.55516 414.447 1.84587C414.483 2.56663 416.078 2.38304 416.339 1.62769C416.514 1.11835 416.615 1.11341 416.84 1.60305C416.994 1.93942 417.685 2.18736 418.374 2.15347C420.076 2.06978 420.05 3.17658 418.298 5.42825L416.895 7.23319L406.392 7.7497C398.409 8.14227 395.821 8.11933 395.607 7.65419C395.382 7.16455 395.282 7.16949 395.106 7.67882C394.985 8.02875 394.145 8.35196 393.24 8.39649C392.334 8.44103 391.466 8.20181 391.312 7.86544C391.087 7.3758 390.986 7.38074 390.811 7.89008C390.69 8.24001 390.22 8.54498 389.768 8.56725C389.314 8.58954 388.955 8.83251 388.969 9.10723C388.982 9.38395 387.86 9.66247 386.451 9.73172C384.838 9.81104 383.83 10.0895 383.69 10.4934C383.514 11.0027 383.414 11.0077 383.189 10.518C382.855 9.7919 381.25 9.7657 381.286 10.4865C381.299 10.7612 380.537 11.024 379.592 11.0705C378.647 11.1169 377.863 10.9302 377.849 10.6555C377.836 10.3807 377.438 10.175 376.965 10.1982C376.493 10.2215 376.117 10.4652 376.131 10.74C376.144 11.0147 375.575 11.268 374.867 11.3028C374.158 11.3377 373.589 11.591 373.603 11.8657C373.616 12.1404 372.661 12.4127 371.479 12.4708C370.298 12.5289 369.32 12.3517 369.307 12.0769C369.293 11.8022 368.912 11.5957 368.459 11.618C368.006 11.6402 367.509 11.3828 367.354 11.0464C367.129 10.5568 367.029 10.5617 366.853 11.071C366.732 11.421 366.07 11.7355 365.38 11.7693C364.691 11.8032 364.138 12.0557 364.152 12.3304C364.167 12.6266 362.601 12.9074 360.311 13.0201L356.444 13.2102L356.346 11.2122Z" fill="#04CFFD"/>
</svg>
